<?xml version="1.0" encoding="UTF-8"?>
<!DOCTYPE svg PUBLIC "-//W3C//DTD SVG 1.1//EN" "http://www.w3.org/Graphics/SVG/1.1/DTD/svg11.dtd">
<svg preserveAspectRatio="none" xmlns="http://www.w3.org/2000/svg" version="1.1" width="200px" height="200px" style="shape-rendering:geometricPrecision; text-rendering:geometricPrecision; image-rendering:optimizeQuality; fill-rule:evenodd; clip-rule:evenodd" xmlns:xlink="http://www.w3.org/1999/xlink">
<g><path style="opacity:0.884" fill="#000000" d="M 14.5,9.5 C 18.226,9.17744 21.8927,9.51078 25.5,10.5C 24.3112,11.4287 22.9778,11.762 21.5,11.5C 21.5,19.1667 21.5,26.8333 21.5,34.5C 22.8333,34.5 24.1667,34.5 25.5,34.5C 25.5,35.5 25.5,36.5 25.5,37.5C 21.8333,37.5 18.1667,37.5 14.5,37.5C 14.5,28.1667 14.5,18.8333 14.5,9.5 Z"/></g>
<g><path style="opacity:0.977" fill="#000000" d="M 32.5,9.5 C 35.2469,9.18665 37.9135,9.51998 40.5,10.5C 39.1667,10.8333 37.8333,11.1667 36.5,11.5C 34.6672,11.4146 33.3339,10.7479 32.5,9.5 Z"/></g>
<g><path style="opacity:0.87" fill="#000000" d="M 47.5,9.5 C 50.5719,9.18259 53.5719,9.51592 56.5,10.5C 55,10.8333 53.5,11.1667 52,11.5C 50.0145,11.4313 48.5145,10.7647 47.5,9.5 Z"/></g>
<g><path style="opacity:0.87" fill="#000000" d="M 63.5,9.5 C 66.5719,9.18259 69.5719,9.51592 72.5,10.5C 71,10.8333 69.5,11.1667 68,11.5C 66.0145,11.4313 64.5145,10.7647 63.5,9.5 Z"/></g>
<g><path style="opacity:0.869" fill="#000000" d="M 79.5,9.5 C 82.5719,9.18259 85.5719,9.51592 88.5,10.5C 87,10.8333 85.5,11.1667 84,11.5C 82.0145,11.4313 80.5145,10.7647 79.5,9.5 Z"/></g>
<g><path style="opacity:0.977" fill="#000000" d="M 95.5,9.5 C 98.2469,9.18665 100.914,9.51998 103.5,10.5C 102.167,10.8333 100.833,11.1667 99.5,11.5C 97.6672,11.4146 96.3339,10.7479 95.5,9.5 Z"/></g>
<g><path style="opacity:0.869" fill="#000000" d="M 110.5,9.5 C 113.572,9.18259 116.572,9.51592 119.5,10.5C 118,10.8333 116.5,11.1667 115,11.5C 113.014,11.4313 111.514,10.7647 110.5,9.5 Z"/></g>
<g><path style="opacity:0.865" fill="#000000" d="M 126.5,9.5 C 129.572,9.18259 132.572,9.51592 135.5,10.5C 134,10.8333 132.5,11.1667 131,11.5C 129.014,11.4313 127.514,10.7647 126.5,9.5 Z"/></g>
<g><path style="opacity:0.865" fill="#000000" d="M 142.5,9.5 C 145.572,9.18259 148.572,9.51592 151.5,10.5C 150,10.8333 148.5,11.1667 147,11.5C 145.014,11.4313 143.514,10.7647 142.5,9.5 Z"/></g>
<g><path style="opacity:0.863" fill="#000000" d="M 157.5,9.5 C 160.572,9.18259 163.572,9.51592 166.5,10.5C 165,10.8333 163.5,11.1667 162,11.5C 160.014,11.4313 158.514,10.7647 157.5,9.5 Z"/></g>
<g><path style="opacity:0.884" fill="#000000" d="M 173.5,9.5 C 177.167,9.5 180.833,9.5 184.5,9.5C 184.5,18.8333 184.5,28.1667 184.5,37.5C 182.5,37.5 180.5,37.5 178.5,37.5C 178.5,87.8333 178.5,138.167 178.5,188.5C 174.651,188.597 170.817,188.931 167,189.5C 165.5,189.167 164,188.833 162.5,188.5C 162.709,187.914 163.043,187.414 163.5,187C 166.192,186.57 168.859,186.737 171.5,187.5C 171.5,137.5 171.5,87.5 171.5,37.5C 170.167,37.5 168.833,37.5 167.5,37.5C 167.5,36.5 167.5,35.5 167.5,34.5C 170.833,35.1667 174.167,35.8333 177.5,36.5C 177.5,28.1667 177.5,19.8333 177.5,11.5C 175.517,11.8432 174.183,11.1765 173.5,9.5 Z"/></g>
<g><path style="opacity:0.556" fill="#000000" d="M 31.5,34.5 C 34.5,34.5 37.5,34.5 40.5,34.5C 40.5,35.5 40.5,36.5 40.5,37.5C 37.5,37.5 34.5,37.5 31.5,37.5C 31.5,36.5 31.5,35.5 31.5,34.5 Z"/></g>
<g><path style="opacity:0.555" fill="#000000" d="M 46.5,34.5 C 49.5,34.5 52.5,34.5 55.5,34.5C 55.5,35.5 55.5,36.5 55.5,37.5C 52.5,37.5 49.5,37.5 46.5,37.5C 46.5,36.5 46.5,35.5 46.5,34.5 Z"/></g>
<g><path style="opacity:0.555" fill="#000000" d="M 61.5,34.5 C 64.5,34.5 67.5,34.5 70.5,34.5C 70.5,35.5 70.5,36.5 70.5,37.5C 67.5,37.5 64.5,37.5 61.5,37.5C 61.5,36.5 61.5,35.5 61.5,34.5 Z"/></g>
<g><path style="opacity:0.625" fill="#000000" d="M 77.5,34.5 C 80.1667,34.5 82.8333,34.5 85.5,34.5C 85.5,35.5 85.5,36.5 85.5,37.5C 82.8333,37.5 80.1667,37.5 77.5,37.5C 77.5,36.5 77.5,35.5 77.5,34.5 Z"/></g>
<g><path style="opacity:0.624" fill="#000000" d="M 92.5,34.5 C 95.1667,34.5 97.8333,34.5 100.5,34.5C 100.5,35.5 100.5,36.5 100.5,37.5C 97.8333,37.5 95.1667,37.5 92.5,37.5C 92.5,36.5 92.5,35.5 92.5,34.5 Z"/></g>
<g><path style="opacity:0.624" fill="#000000" d="M 107.5,34.5 C 110.167,34.5 112.833,34.5 115.5,34.5C 115.5,35.5 115.5,36.5 115.5,37.5C 112.833,37.5 110.167,37.5 107.5,37.5C 107.5,36.5 107.5,35.5 107.5,34.5 Z"/></g>
<g><path style="opacity:0.626" fill="#000000" d="M 122.5,34.5 C 125.167,34.5 127.833,34.5 130.5,34.5C 130.5,35.5 130.5,36.5 130.5,37.5C 127.833,37.5 125.167,37.5 122.5,37.5C 122.5,36.5 122.5,35.5 122.5,34.5 Z"/></g>
<g><path style="opacity:0.625" fill="#000000" d="M 137.5,34.5 C 140.167,34.5 142.833,34.5 145.5,34.5C 145.5,35.5 145.5,36.5 145.5,37.5C 142.833,37.5 140.167,37.5 137.5,37.5C 137.5,36.5 137.5,35.5 137.5,34.5 Z"/></g>
<g><path style="opacity:0.625" fill="#000000" d="M 152.5,34.5 C 155.167,34.5 157.833,34.5 160.5,34.5C 160.5,35.5 160.5,36.5 160.5,37.5C 157.833,37.5 155.167,37.5 152.5,37.5C 152.5,36.5 152.5,35.5 152.5,34.5 Z"/></g>
<g><path style="opacity:0.584" fill="#000000" d="M 19.5,44.5 C 20.5,44.5 21.5,44.5 22.5,44.5C 22.5,47.5 22.5,50.5 22.5,53.5C 21.5,53.5 20.5,53.5 19.5,53.5C 19.5,50.5 19.5,47.5 19.5,44.5 Z"/></g>
<g><path style="opacity:0.563" fill="#000000" d="M 20.5,60.5 C 22.1238,60.3601 23.2904,61.0267 24,62.5C 24.2511,64.433 24.7511,66.2663 25.5,68C 24.4642,69.6169 23.2975,69.7836 22,68.5C 21.433,65.8323 20.933,63.1656 20.5,60.5 Z"/></g>
<g><path style="opacity:0.526" fill="#000000" d="M 24.5,75.5 C 25.4959,75.4142 26.3292,75.7476 27,76.5C 27.7348,78.8713 28.5682,81.2046 29.5,83.5C 28.3112,84.4287 26.9778,84.762 25.5,84.5C 25.5339,81.8015 24.8672,79.3015 23.5,77C 24.056,76.6174 24.3893,76.1174 24.5,75.5 Z"/></g>
<g><path style="opacity:0.524" fill="#000000" d="M 29.5,90.5 C 30.4959,90.4142 31.3292,90.7476 32,91.5C 33.3409,94.022 34.1743,96.6887 34.5,99.5C 33.325,99.719 32.325,99.3857 31.5,98.5C 29.7089,95.8559 29.0422,93.1892 29.5,90.5 Z"/></g>
<g><path style="opacity:0.508" fill="#000000" d="M 36.5,104.5 C 39.4205,106.662 41.0871,109.662 41.5,113.5C 36.9488,112.062 35.2821,109.062 36.5,104.5 Z"/></g>
<g><path style="opacity:0.526" fill="#000000" d="M 44.5,118.5 C 47.1435,120.153 49.1435,122.487 50.5,125.5C 49.7579,126.287 48.9246,126.953 48,127.5C 45.0475,124.969 43.8809,121.969 44.5,118.5 Z"/></g>
<g><path style="opacity:0.493" fill="#000000" d="M 53.5,131.5 C 56.0562,132.543 58.2228,134.21 60,136.5C 60.5,138.667 59.6667,139.5 57.5,139C 56,137.5 54.5,136 53,134.5C 52.5304,133.423 52.6971,132.423 53.5,131.5 Z"/></g>
<g><path style="opacity:0.544" fill="#000000" d="M 64.5,142.5 C 66.9635,144.461 69.2968,146.628 71.5,149C 71.1667,149.333 70.8333,149.667 70.5,150C 68.1171,149.554 65.9504,148.388 64,146.5C 63.4209,145.072 63.5876,143.738 64.5,142.5 Z"/></g>
<g><path style="opacity:0.527" fill="#000000" d="M 75.5,153.5 C 79.4719,154.479 82.1386,156.812 83.5,160.5C 78.9236,160.253 76.257,157.919 75.5,153.5 Z"/></g>
<g><path style="opacity:0.511" fill="#000000" d="M 88.5,162.5 C 90.7802,163.64 93.1136,164.807 95.5,166C 96.3366,167.011 96.67,168.178 96.5,169.5C 93.7766,168.648 91.11,167.481 88.5,166C 87.8288,165.014 87.8288,163.847 88.5,162.5 Z"/></g>
<g><path style="opacity:0.51" fill="#000000" d="M 102.5,170.5 C 106.425,171.1 109.092,173.1 110.5,176.5C 107.689,176.174 105.022,175.341 102.5,174C 101.316,172.855 101.316,171.688 102.5,170.5 Z"/></g>
<g><path style="opacity:0.545" fill="#000000" d="M 116.5,177.5 C 119.313,177.548 121.979,178.215 124.5,179.5C 125.386,180.325 125.719,181.325 125.5,182.5C 122.5,181.833 119.5,181.167 116.5,180.5C 116.5,179.5 116.5,178.5 116.5,177.5 Z"/></g>
<g><path style="opacity:0.544" fill="#000000" d="M 131.5,181.5 C 134.461,182.323 137.461,182.99 140.5,183.5C 140.5,184.5 140.5,185.5 140.5,186.5C 137.784,186.322 135.117,185.822 132.5,185C 131.663,183.989 131.33,182.822 131.5,181.5 Z"/></g>
<g><path style="opacity:0.582" fill="#000000" d="M 147.5,185.5 C 150.807,185.063 153.807,185.73 156.5,187.5C 156.167,188.5 155.5,189.167 154.5,189.5C 152.253,188.626 149.92,188.292 147.5,188.5C 147.5,187.5 147.5,186.5 147.5,185.5 Z"/></g>
</svg>
