<?xml version="1.0" encoding="UTF-8"?><svg id="Layer_2" xmlns="http://www.w3.org/2000/svg" viewBox="0 0 108.57412 100.18165"><defs><style>.cls-1{fill:none;stroke:#000;stroke-linecap:round;stroke-linejoin:round;stroke-width:.75px;}</style></defs><g id="Illustrations"><g id="Plant_Object.42"><path id="Object.42.49" class="cls-1" d="m41.57881,30.96129c-1.11406-1.15608-2.30845-2.22002-3.56067-3.10067-6.59942-4.6414-14.21415-7.54222-15.30196-5.14905s-.51022,6.09173-.51022,6.09173c0,0,1.16292.14509,2.46828-.14501l1.3054-.2901-3.77368,1.3054s2.68584,5.36661,3.55609,6.38191l.87025,1.0153,3.11841-1.74058-2.75577,2.3207s1.53286,2.87699,3.95564,5.81624"/><path id="Object.42.48" class="cls-1" d="m45.68798,67.46669c-.77774-.46317-2.28526-1.18361-3.75367-.87982-2.10311.43511-7.25212,5.72917-10.44304,7.61469-3.19095,1.88559-10.29803,12.47364-10.73314,16.17221-.43515,3.69857-1.23289,5.51162,0,5.87426,1.23286.36264,11.82094-11.0957,15.51951-14.50425,3.69857-3.40847,13.27139-11.60343,12.03853-12.90875-.70773-.74934-1.29053-.97203-1.65957-1.02665"/><path id="Object.42.47" class="cls-1" d="m64.50234,67.86564c-1.02007.20923-2.50297.79132-2.40716,2.41979.14505,2.46571,2.24816,8.55752,3.84362,12.25609,1.59546,3.69857,7.79601,17.11504,11.33141,17.26005,3.53544.14501,3.89804-2.82835,3.24534-7.46968-.24361-1.73241-.86144-4.17225-1.63963-6.74962"/><path id="Object.42.46" class="cls-1" d="m63.38446,28.55526c.98024-2.39339,2.38818-4.58134,2.77188-5.26358.6527-1.16031,4.78641-6.16428,4.78641-6.16428l2.75581,2.97344-.43515-.65274c-.43511-.65274-1.66796-2.61072-1.66796-2.61072l2.82831-4.78649,2.39321-2.32062s2.75581,5.07651,3.04591,5.58408c.29006.50773-.2901-.50758-.71208-2.0306-.42198-1.52288-.81087-2.24816-.81087-2.24816l1.95806-1.59542-.43511-1.52295.65266-.50758c.6527-.50773,3.84362-2.46178,3.84362-2.46178l1.16035,2.7518-.58016-2.68327s2.68327-.36264,4.78637.58019c2.10315.94276,3.11841,4.71387,1.88555,10.00793-1.23286,5.29399-3.84362,8.4849-3.84362,8.4849l-7.68723-2.10307,6.67193,2.75581-3.33596,5.00397.43515.43511-3.11841,2.75581-7.75977-1.23286,2.32066,1.08784c2.3207,1.08777,3.55356,1.30532,3.55356,1.30532l-1.88555,1.95814.6527.43511s-.36264.87022-3.40851,2.32062c-1.68381.80183-3.96329.47255-5.66767.01846"/><path id="Object.42.45" class="cls-1" d="m90.1639,53.70368c1.67008-.30787,3.25215-.65803,4.63834-1.04087,7.61473-2.10315,12.98129-5.00397,11.7484-8.26742-1.23286-3.26346-10.7331-4.3513-20.23338-4.3513s-14.4317,2.68327-16.31726,4.3513c-1.54531,1.36697-.85074,3.41346-.54948,4.10848"/><path id="Object.42.44" class="cls-1" d="m73.47061,54.84274c-.78935-.12527-1.36421-.31022-1.6576-.56196-1.18928-1.02052-1.77194-2.95362-2.04066-4.24336"/><path id="Object.42.43" class="cls-1" d="m65.65667,69.48088c.30685.6684.61355,1.33694.91364,2.00965.79404,1.76585,1.57447,3.53949,2.3513,5.31456,3.10275,7.10303,6.14438,14.23586,9.16347,21.37724.02504.05908.09304.08813.15307.06422.06089-.02405.09066-.09304.06653-.15394-2.85793-7.20893-5.73798-14.4084-8.68207-21.58496-.52694-1.28202-1.0619-2.56125-1.59671-3.84063"/><path id="Object.42.42" class="cls-1" d="m69.05338,32.21041c.78867-1.28619,1.58952-2.56609,2.43833-3.82315,1.25498-1.82689,2.56942-3.59047,3.90409-5.34081,1.33619-1.74815,2.69159-3.4792,4.05644-5.20238,1.37132-1.71827,2.75187-3.42844,4.1392-5.13294l2.08556-2.5527,2.11007-2.53288c.04194-.05038.11672-.05719.16706-.01528.04887.0407.05598.11339.018.16362-2.65524,3.50045-5.3371,6.97995-7.95584,10.50529-1.31898,1.75526-2.63255,3.51415-3.92191,5.28862-1.28872,1.77356-2.57732,3.55106-3.77671,5.36842-.97498,1.52288-1.91517,3.0742-2.84163,4.63611"/><path id="Object.42.41" class="cls-1" d="m63.68606,58.68064c.0781.09183.15492.18442.23287.27641.16585.19562.33049.39199.49555.58806.26831.31869.53893.63617.80539.95585,2.24593,2.68659,4.46935,5.38763,6.69023,8.09125,4.4375,5.41018,8.85692,10.83374,13.26534,16.26654.0413.05083.03351.12549-.01736.1668-.04996.04055-.12307.03359-.16475-.01483-4.56001-5.30533-9.1311-10.60144-13.71841-15.88196-2.29544-2.63841-4.59393-5.27485-6.91013-7.89124-.32792-.37157-.6589-.73897-.98864-1.10812-.07825-.0876-.15621-.1755-.23457-.26294-.10458-.11664-.20833-.2345-.31313-.35099"/><path id="Object.42.40" class="cls-1" d="m65.00348,57.13038c-.34717.47928-.80024,1.01409-1.31743,1.55026-.27156.28155-.55882.56234-.85762.83481-.29036.26483-.59033.5196-.89382.76008-.31374.24857-.63042.47868-.94473.68436-.60187.39381-1.19254.69646-1.72303.84056-.61204.16619-1.36909-.04539-2.13594-.47649-.40424-.22724-.80996-.51733-1.19984-.84495-.44347-.37263-.86363-.79336-1.23376-1.23316-.31525-.37459-.58991-.75947-.8128-1.138-.22353-.37958-.39751-.75176-.49188-1.09382-.1042-.37762-.082-.74578.01887-1.0967.15348-.53382.49479-1.02483.88481-1.44421.78126-.84011,1.74773-1.38944,1.74773-1.38944,0,0,.51245-.02579,1.31066-.06324.46347-.02163,1.0229-.04728,1.63737-.07413,1.55003-.06793,3.43937-.14342,4.97681-.18306.67025-.01732,1.27469-.02799,1.75234-.02799.01986,0,.03374.0031.05306.00333,2.19044.02973,1.13312,1.72908.02614,3.2804-.23839.33405-.4786.66136-.68905.96318l-.10791.14819Z"/><path id="Object.42.39" class="cls-1" d="m57.53986,48.50516c.19429-.54441.3929-1.08769.6069-1.62886.66045-1.64141,1.34262-3.26596,2.05882-4.87726.71235-1.61244,1.4329-3.22057,2.15871-4.8262.74086-1.59905,1.47117-3.20234,2.23333-4.79178.02803-.05915.09879-.08442.15798-.05636.0573.02708.08249.09501.05866.15295l-4.07879,9.74809c-.66669,1.62878-1.36209,3.24727-1.99626,4.88233-.24274.6277-.46832,1.26674-.68855,1.90745-.06498.18896-.13174.37732-.19554.56658-.13839.41544-.2741.83164-.40024,1.24859-.06241.2084-.12432.41718-.17988.62498-.07807.20303-.01902.43473-.35587.56628l-.05299.02065c-.06592.02579-.13862.00567-.18302-.04433-.26827-.30371-.0907-.49736-.05575-.71961.05983-.2171.12478-.43019.19036-.64313.13215-.42512.27274-.84525.41582-1.26432.10015-.28957.20345-.57777.30632-.86605Z"/><path id="Object.42.38" class="cls-1" d="m47.39214,51.98753c.15197-1.01311.46332-1.97243.91549-2.85029"/><path id="Object.42.37" class="cls-1" d="m52.83242,44.88322c-1.5641.68473-2.89984,1.78884-3.87051,3.17042"/><path id="Object.42.36" class="cls-1" d="m56.94242,62.61325c1.56407-.06702,3.0251-.51847,4.29453-1.26743"/><path id="Object.42.35" class="cls-1" d="m52.59974,61.74349c.93709.44207,1.95549.73905,3.03274.84404"/><path id="Object.42.34" class="cls-1" d="m65.00348,57.13038c-.29085.65327-.65739,1.26357-1.08455,1.82667"/><path id="Object.42.33" class="cls-1" d="m64.36304,48.41862c.22686.35757.42966.73111.60663,1.11962"/><path id="Object.42.32" class="cls-1" d="m62.19355,60.69854c.33359-.25765.65278-.53224.94802-.83209"/><path id="Object.42.31" class="cls-1" d="m65.7743,52.73861c-.03877-.57399-.13003-1.13225-.26865-1.67296"/><path id="Object.42.30" class="cls-1" d="m82.12564,72.76355c2.43137,1.3262,4.61735,2.42373,5.75398,2.96103,3.37538,1.59542,6.12487,2.32062,6.12487,2.32062l.79775-6.22774.14505,6.15528s1.16031.50758,2.17561.50758,9.50028-1.45041,10.44304-2.97336c.9428-1.52295,1.23286-6.01927-2.03057-9.64529-3.26346-3.62602-5.36657-6.23682-5.36657-6.23682l-5.43911,5.65663s.3626-.65266,1.59546-2.61072c1.23289-1.95814,3.48105-3.84365,3.48105-3.84365,0,0-1.74051-1.37794-5.51162-3.66226-.93678-.56749-2.41117-1.05645-4.13069-1.46115-5.20268-1.22453-12.65451-1.67644-14.28968-1.18596-.92264.27686-1.75204,1.27181-2.40361,2.32501-.86919,1.40517-1.41777,2.90755-1.43691,2.96058"/><path id="Object.42.29" class="cls-1" d="m63.37614,60.12939c-.36211.2255-.7344.4867-1.06436.77135-.32962.28435-.61215.59071-.78981.90834-.11831.21158-.19376.42724-.20034.64411-.01914.63178,1.38498,2.85725,3.1807,5.41245.37134.52838.75849,1.06969,1.15434,1.61524.7836,1.0799,1.59565,2.16918,2.36923,3.18615,1.71815,2.25875,3.23884,4.15107,3.78711,4.72552,1.36603,1.43104,4.71236,6.00467,7.0629,8.18974.27001.25099.53027.47845.76938.65781,2.3207,1.74051,7.97733,2.0306,8.23433-.87022.21506-2.42774-3.51195-9.22123-5.75398-12.60632-.43696-.6597-.81855-1.19231-1.10244-1.53528-1.18319-1.42968-6.08489-7.6159-9.65043-11.61485-.36884-.4137-.7249-.80637-1.05952-1.16553.44419.12035.88935.24063,1.3197.373.06929.02133.14146.04039.20972.06248.50084.16173,1.00547.29048,1.50332.48496l1.49799.54388c.4974.18994.99189.39237,1.48804.58799,1.9842.7864,3.94468,1.64799,5.90818,2.50051,1.95972.86303,3.91158,1.74671,5.85837,2.64264,1.94864.89208,3.89256,1.79588,5.83265,2.7083,1.94131.91,3.88325,1.81978,5.81858,2.74363l5.8041,2.77676c.0567.02708.12591.00545.15605-.05045.03109-.05772.00953-.12965-.04811-.16074-1.88922-1.01893-3.78802-2.0182-5.69585-3.00067-1.90575-.98641-3.81529-1.966-5.73121-2.9335-1.91978-.95948-3.84403-1.91078-5.77437-2.85074-1.93465-.93103-3.87554-1.85027-5.82683-2.74998-1.95348-.89609-3.91714-1.77031-5.91155-2.58856-.49948-.20288-.99556-.41196-1.49795-.60985l-1.52046-.57006c-.4999-.20137-1.0347-.34623-1.55276-.51847-.03934-.01324-.07791-.023-.11717-.0357-.48371-.15704-.96054-.28321-1.43808-.41529-.62297-.17156-1.24197-.35712-1.86396-.53224-.42822-.38843-.76556-.64056-.97982-.71197-.36881-.123-.70626-.04486-1.01231.14327-.31283-.09009-.62653-.17716-.93909-.26808"/><path id="Object.42.28" class="cls-1" d="m61.93462,60.27553c.08018.13238.16309.26279.24289.39547.00545.00908.01059.01846.01604.02753"/><path id="Object.42.27" class="cls-1" d="m71.37276,59.61342c.08839-.291.17708-.55894.26018-.79253"/><line id="Object.42.26" class="cls-1" x1="68.73166" y1="56.85579" x2="70.31324" y2="58.44788"/><path id="Object.42.25" class="cls-1" d="m62.31178,60.90074c-.04009-.06695-.07803-.13533-.11823-.2022"/><path id="Object.42.24" class="cls-1" d="m65.11139,56.98219c.25326.07315.50776.14198.76121.21445-.60697.92982-.94911,2.10368-.94911,2.10368,0,0-.20356.08994-.50901.24479"/><line id="Object.42.23" class="cls-1" x1="65.8726" y1="57.19665" x2="66.73953" y2="56.2871"/><path id="Object.42.22" class="cls-1" d="m60.98989,60.95989c.06744.10613.13752.21082.20466.31703.01441.02284.02799.04614.0424.06891.0969.15341.18877.30946.28503.46325"/><path id="Object.42.21" class="cls-1" d="m57.13092,61.32397c-.06199.42989-.1258.85947-.18851,1.28929-.13347.91492-.27289,1.82916-.41722,2.74272-.05571.35266-.10776.70592-.16615,1.05834-.56726,3.40552-1.17283,6.80862-1.98733,10.17995-.40731,1.68165-.90134,3.37398-1.45211,4.99564l-1.61403,4.90949-1.64538,4.8995-.82328,2.44952-.84264,2.44332c-.02137.06188-.08892.09486-.15087.07353-.05942-.02058-.09187-.08434-.07561-.1441l.68526-2.49219.70463-2.48598,1.41039-4.97136,1.44179-4.96145c.23752-.82695.49373-1.65427.70478-2.47259l.16513-.61544.14603-.62339c.09456-.41657.20087-.82876.28586-1.24859.70531-3.34833,1.28978-6.73464,1.79387-10.13335.05908-.38715.11101-.77581.16888-1.16326.12266-.82142.24123-1.64353.35806-2.46601.06974-.49108.14626-.98103.21377-1.4725l.04285-.32119.04198-.31483"/><path id="Object.42.20" class="cls-1" d="m55.27442,65.05355c-.83345-.39312-2.34933-.96447-3.11463-.3522-1.08784.87022-1.45045,1.59542-1.45045,1.81297,0,.21763,3.40851,1.23293,3.40851,1.23293l-4.20622.50758s-1.88555,3.48101-1.668,3.48101h1.59546l-1.95806,4.27876s1.668-.58019,2.90086,0c1.23286.58019,1.66796,1.08784,1.66796,1.08784,0,0-2.68327.50765-4.56882.50765s-2.32066.36264-2.32066.36264l-1.3054,6.16428h.9428l-.9428,4.64133s.38855-.14501,1.97107-.2901c1.58248-.14509,2.59775,0,2.59775,0l-5.00393,1.08784s.07251,5.94672,2.75581,7.97733c2.68327,2.03053,5.14898-1.88559,5.14898-1.88559l1.23286.50773,3.77111-7.17966-3.91616-2.3207,2.90086,1.08784,1.52295-4.06113,1.59546.65266s1.81305-6.672,1.81305-7.61476v-1.37787s-2.61076-1.08784-3.48101-1.23286c-.87025-.14509-1.23289-.2901-1.23289-.2901h4.71391s1.52291-6.01927,0-7.32467c-1.09522-.93875-3.08513-1.12642-4.11957-1.15835"/><path id="Object.42.19" class="cls-1" d="m22.7084,59.92303c-.72868,1.45124-.61628,2.899.04406,3.92611.97903,1.52303,5.00393,3.48101,11.2589,3.37224,5.16758-.08987,12.59532-2.59166,15.82058-4.04184-.64593.75531-1.30177,1.49973-1.98994,2.20262-.25371.26657-.52346.50591-.78459.76091-.27523.26135-.55735.51983-.8271.7839l-.54233.53972-.25836.25712-.7853.80667c-2.08004,2.16018-4.10043,4.3653-6.11295,6.57866l-3.00139,3.33456-1.49084,1.67591-.74215.84117-.36952.42248c-.1219.14009-.24554.28064-.37455.4398-.03847.04766-.03404.11801.01169.16014.04766.0438.12186.04077.1657-.00688l.01997-.02171.36805-.39978.38295-.40848.76995-.81401,1.54693-1.62205,3.11251-3.22609c2.08514-2.13953,4.17997-4.27241,6.32048-6.34658l.80607-.77263.59941-.55659.21593-.20046c.27308-.24948.55081-.48632.82596-.73042.2831-.25704.58114-.50508.85221-.77067,1.10237-1.05063,2.12085-2.16117,3.1192-3.28721.31377-.35613.62089-.71673.92982-1.07612.40958-.47641.81549-.95569,1.21754-1.43755.29418-.35266.58935-.70463.88005-1.06008"/><path id="Object.42.18" class="cls-1" d="m50.78018,56.86154c.16116.43322.40088,1.12741.6024,1.88446.18609.69911.33401,1.44678.35693,2.10231.30095-.37656.60032-.75418.89722-1.13452.41744-.53481.83799-1.065,1.2478-1.60593"/><path id="Object.42.17" class="cls-1" d="m54.29633,54.47314c-1.26656.54056-2.55312,1.05002-3.85099,1.52878-.63333.23359-1.26875.4609-1.90537.68141-1.24277.42618-2.4951.82437-3.75549,1.19564-1.26009.37315-2.53254.69729-3.81097,1.01212-2.56106.61204-5.14285,1.15479-7.73156,1.66267-2.58924.50515-5.18593.98172-7.78776,1.41955-.06313.01074-.10738.0699-.09841.13359.00915.0649.06918.11014.13404.10091,2.61647-.36915,5.22602-.77687,7.83232-1.21379,2.60573-.4398,5.20647-.91454,7.79714-1.46153,1.29314-.28223,2.58829-.57581,3.86975-.9184,1.28191-.34093,2.55652-.70924,3.82243-1.10623.65902-.20908,1.31501-.42459,1.96873-.64631.8819-.29917,1.75798-.61635,2.63134-.9442"/><path id="Object.42.16" class="cls-1" d="m49.10779,53.58371c.65175.87596,1.11383,1.87757,1.33755,2.41821"/><path id="Object.42.15" class="cls-1" d="m46.87223,51.9457l-5.75273-.4631-1.1324-.09108-11.74223-.9451c-2.15795-.18321-4.30853-.32323-6.45835-.52301-2.14952-.20091-4.29733-.43117-6.44284-.68564-4.2898-.51665-8.57382-1.11303-12.83976-1.80851-.0632-.01014-.12466.03147-.13669.09478-.01222.06437.03007.1264.0944.13866,4.253.80683,8.52257,1.5141,12.80682,2.14301,2.14256.3106,4.28924.59706,6.44061.85441,2.15141.25628,4.31337.45341,6.46001.69177l11.86648,1.26485,9.07225.96696,4.85827.51786.01513.00166c.00552.00045.01104.00098.0166.00151.43499.03495.81602-.28926.85104-.7243.01498-.18586-.04576-.3553-.14255-.49865-.12981-.19221-.33253-.33231-.58171-.35243l-.1056-.00847-4.82348-.38821-1.80337-.14516-.51991-.04183Z"/><path id="Object.42.14" class="cls-1" d="m40.03555,52.61675c.00492.16347.009.30356.0132.40871,0,0-.21755,4.13367-5.78617,5.94672-3.26002,1.06129-7.74824,1.15116-11.55418.95085-2.69529-.14176-5.05121-.428-6.37408-.62271-3.19092-.46945-6.52692-2.06873-6.52692-2.06873l2.53825-6.30929s-.3626.7252-1.0153,1.88552-2.39321,2.97336-2.39321,2.97336l-1.59546-1.16031-1.08781,1.16031s-.43515-.43511-2.90086-1.50041c-2.46571-1.0653-3.62606-5.89672-2.61076-9.52282,1.0153-3.62602,8.77508-5.22144,9.64533-4.71387.79525.46393,2.31317,5.63832,2.56953,6.7503-.04202-.36499-.11929-1.10146-.24887-2.18144-.21755-1.81297-1.3779-5.17008-1.3779-5.17008,0,0,6.16432-.55909,8.41247-.1441,2.24816.41499,9.42774,2.05072,9.42774,2.05072,0,0,1.88555,8.41251,1.95806,8.63006.07254.21755.07254-.79775.07254-2.75588,0-1.95798-.50765-3.77103-.50765-3.77103,0,0,.09724.00499.25708.01452.95743.05719,4.44692.29638,6.5599.85569,1.56301.41378,2.14199,3.25279,2.3707,5.62297.04962.51423.08287,1.00524.1059,1.44572"/><path id="Object.42.13" class="cls-1" d="m47.08649,46.81715c.41468-.24403,2.53504-1.56206,2.53504-3.00188,0-.61151-.73704-2.4176-2.0151-4.67211"/><path id="Object.42.12" class="cls-1" d="m46.67294,47.98435c-.23548.65591-.59986,1.48097-1.11258,2.14021-.60213.77415-2.96712.7249-5.67917-.17875"/><path id="Object.42.11" class="cls-1" d="m54.01898,52.5209c-1.21394-.63057-2.39336-1.2911-3.55416-1.99838-.21192-.12965-.41692-.2702-.62717-.40258-.51306-.32285-1.0271-.64419-1.53003-.9827-.55304-.37232-1.09462-.76159-1.63468-1.1529-.14535-.1053-.29554-.20356-.43991-.31022-.685-.50357-1.35548-1.02567-2.00893-1.59845-.33703-.27444-.6322-.57505-.94726-.8631-.31124-.29025-.62308-.57989-.91976-.88065-.60319-.59434-1.20309-1.19065-1.7865-1.80011-.59154-.60274-1.17056-1.21568-1.74856-1.82931-2.31136-2.45505-4.567-4.95548-6.80295-7.47255-2.23469-2.51813-4.44582-5.05556-6.63611-7.61174-.04263-.0497-.03688-.12459.0129-.16717.04875-.04176.12213-.03646.16517.01044,2.26752,2.4844,4.55634,4.95048,6.86626,7.39464,2.31102,2.44302,4.64091,4.86833,7.01827,7.23987.59445.59275,1.18959,1.18452,1.79508,1.76388.59876.58761,1.21039,1.15835,1.82375,1.72606.3033.28896.61677.56196.92945.8358.31438.26975.61915.5609.94344.8072.32535.2519.62819.51877.97067.75841.33824.24176.67085.49056,1.01617.72271.05329.03691.10893.07035.16237.10711.61726.42361,1.24155.83739,1.87542,1.23649.51174.32217,1.03365.6277,1.55533.93361.21177.12421.41862.25666.63193.37822,1.22419.69533,2.48307,1.35994,3.74441,1.95746"/><path id="Object.42.10" class="cls-1" d="m51.91455,38.53543c.63666-.20265,2.72812-.94117,3.2186-2.04482.58016-1.3054-1.08781-5.43915-1.08781-7.75977s-.6527-10.44304-2.3207-13.56149c-1.66796-3.11845-1.52295-3.26346-3.26346-6.59946-1.74051-3.33593-5.22152-8.19488-7.54218-8.19488s-3.62606,4.20629-3.69857,8.19488c-.07254,3.98874-.07254,6.45445,1.3779,11.60343.85679,3.04167,1.81657,7.24191,2.98047,10.78798.80641,2.45679,1.70987,4.60244,2.7487,5.81934,1.10173,1.29065,2.25769,2.00617,3.27893,2.36253,1.33161.46476,2.4339.31801,2.88535.03071.17383-.11059.32709-.19736.46574-.27035"/><path id="Object.42.9" class="cls-1" d="m55.27423,49.0287l.02553.07882.49748,1.52439.12478.38095c.04338.1264.0834.25386.10325.38798.02992.20878.02776.428-.04626.67089-.02118.06959-.04611.1404-.08052.21423-.03767.08139-.13419.1168-.21555.07912-.00306-.00136-.00681-.00333-.00976-.00484-.32157-.1761-.4988-.39971-.62634-.63958-.06316-.1202-.10617-.24683-.14577-.37467l-.00749-.02307-.1163-.35878-.49324-1.52779-.04221-.1317"/><path id="Object.42.8" class="cls-1" d="m58.05065,49.01553c.23495.21702.51885.45311.84287.68126.31207.21967.65932.42717,1.03607.59714.33477.15099.69132.26824,1.06402.33601.35375.06437.72006.08745,1.09715.04055.31476-.03911.66734-.26967,1.04231-.64472l.04648-.04471c.37682-.3873.77608-.92233,1.1835-1.56244,1.52711-2.39945,3.16694-6.29159,4.17551-9.58894.67025-2.19142,1.06288-4.12029.9538-5.16743-.00325-.03132-.01241-.059-.0163-.08994-.06362-.50319-.21502-.95395-.42266-1.36191-1.19889-2.35527-4.34745-3.18955-4.34745-3.18955,0,0-.37085-.63526-1.32147-.46559-.50988.091-1.1838.40962-2.06306,1.19087-1.77065,1.57326-5.39857,9.56957-7.38151,14.7364-.02375.06195-.04803.12459-.07133.18578-.22209.58269-.42104,1.12446-.59373,1.61637-.05647.16074-.11078.31748-.1612.4665-.34918,1.03247-.55168,1.7778-.5429,2.06797.01918.63352.77252.66877,1.6711.48549.3348-.06838.68685-.16521,1.0324-.27595,1.06281-.3407,2.03454-.78973,2.03454-.78973,0,0,.08226.10348.23109.26619"/><path id="Object.42.7" class="cls-1" d="m53.81916,44.51362l-1.459-4.56871c-.15065-.46922-.29611-.93996-.44562-1.40949-1.14813-3.60568-2.26956-7.21944-3.39693-10.83132-1.26281-4.08496-2.49154-8.18527-3.73968-12.27719l-1.90076-6.13054-.95063-3.06527-.96617-3.06088c-.01914-.06021-.08287-.09614-.14448-.07935-.0632.01717-.10053.08238-.08332.14562l.84261,3.09697.85807,3.09258,1.71675,6.18516c1.17264,4.11597,2.32615,8.23482,3.51566,12.34837,1.05607,3.66059,2.17195,7.30303,3.29186,10.94396.13858.45054.27546.90168.41412,1.35222l1.46077,4.62748.44241,1.40147"/><path id="Object.42.6" class="cls-1" d="m63.19338,50.00981c.59094-.16074,1.18285-.31862,1.77629-.47157,1.11572-.2876,2.23496-.56378,3.3627-.81174.37055-.08147.74578-.14713,1.11814-.22262.59937-.12156,1.19711-.24857,1.79981-.35848l1.47681-.23533,1.46947-.20061c.97911-.1292,1.95636-.24645,2.93444-.36052l2.93459-.3106c1.95651-.19849,3.91185-.39434,5.86945-.56559l5.87308-.49729,5.87713-.43768,5.86321-.38722.03204-.00204c.06449-.00431.12016.0444.1244.10893.00401.06089-.03979.114-.09891.12323l-.38068.05855-.36517.05068-.73035.10061-1.46028.19849-2.92189.37875-5.84407.74094-11.68138,1.47053c-1.94376.25674-3.88605.52006-5.81854.80138l-1.44508.22255-1.42756.2525c-.58738.11763-1.17272.2525-1.7587.38178-.36309.08011-.72744.15031-1.0897.23654-1.06137.24872-2.1202.51499-3.177.7917-.58178.15235-1.16209.31181-1.74206.47263-.24736.06861-.49596.13147-.74294.20167-.93867.26778-1.87565.54237-2.80944.82725l-1.21913.37913"/><path id="Object.42.5" class="cls-1" d="m55.97901,52.07173c.06611.17882.06551.38261-.01929.57006-.17099.37807-.61616.546-.99431.37489-.00617-.00272-.01528-.00711-.02133-.00999-.08132-.03994-.15696-.08457-.23779-.12489"/><path id="Object.42.4" class="cls-1" d="m57.35472,53.02046l-.04803-.07247-.04819-.07292-.05726-.09978-.00113-.00197c-.04021-.06997-.06456-.14773-.07387-.22308l-.01358-.11415-.00446-.08737-.0076-.17217.00609-.13011.01672-.09819c.02379-.12633.07356-.17474.13408-.18926l.35371-.11286.70743-.22171.10908-.03321,1.04269-.31771.26502-.08079c.4182-.12496.8389-.24153,1.2582-.36279"/><path id="Object.42.3" class="cls-1" d="m58.89352,49.69679l-.40746.68731c-.06297.11944-.159.21755-.17761.35931-.00949.07035-.00851.14857.01827.23858.01048.04501.0261.09145.05061.14115.00806.02481.02443.05363.04217.07428l.02583.04138c.02061-.00083.0705-.00613.08915.01778-.06536.00393-.11517.06006-.1112.12549.00023.00371.0039.00552.00443.00915"/><path id="Object.42.2" class="cls-1" d="m59.92958,50.29393l-.4168.70871c-.01543.02269-.02859.04713-.0424.07088"/><line id="Object.42.1" class="cls-1" x1="49.83194" y1="63.17953" x2="51.73951" y2="60.84831"/></g></g></svg>