<?xml version="1.0" encoding="UTF-8"?><svg id="Layer_2" preserveAspectRatio="none" xmlns="http://www.w3.org/2000/svg" viewBox="0 0 56.02383 55.18759"><defs><style>.cls-1{fill:none;stroke:#000;stroke-linecap:round;stroke-linejoin:round;stroke-width:.75px;}</style></defs><g id="Illustrations"><g id="Bag_chair_Object.13"><path id="Object.13.3" class="cls-1" d="m19.1004.79437c-3.76979.77222-7.03653,2.85725-9.7962,5.48742C.48194,14.68988-1.96701,27.77516,2.69166,39.03682c.89676,2.16783,1.89597,4.20894,2.97032,5.81557,4.4015,6.58212,25.18571,12.89834,31.76788,8.49684,6.58212-4.4015,20.53446-17.76269,17.88955-30.5021C52.67451,10.10778,33.01953-2.05698,19.1004.79437Z"/><path id="Object.13.2" class="cls-1" d="m43.75141,37.96455s5.63468-8.69644,3.84989-14.12198c-1.78474-5.42555-9.6658-10.07424-9.6658-10.07424"/><path id="Object.13.1" class="cls-1" d="m36.21641,12.35231s-6.45167-5.63001-13.99649-4.89231c-4.9548.48444-11.13296,8.05094-11.13296,8.05094"/></g></g></svg>