<?xml version="1.0" encoding="UTF-8"?><svg preserveAspectRatio="none" id="Layer_2" xmlns="http://www.w3.org/2000/svg" viewBox="0 0 37.98549 37.9496"><defs><style>.cls-1{fill:none;stroke:#000;stroke-linecap:round;stroke-linejoin:round;stroke-width:.75px;}</style></defs><g id="Illustrations"><g id="Chair_Object.37"><path id="Object.37.2" class="cls-1" d="m6.57677,29.9133v-12.22287c0-6.84615,5.56976-12.41588,12.41602-12.41588s12.41602,5.56973,12.41602,12.41588v17.43447c0,1.35083-1.09902,2.4497-2.44985,2.4497H9.02648c-1.35083,0-2.4497-1.09888-2.4497-2.4497v-5.2116Z"/><path id="Object.37.1" class="cls-1" d="m31.40882,29.9133h2.56195c2.18486,0,3.87724-2.23127,3.61236-4.7626l-1.18328-7.85799C35.38935,7.63469,28.36385.375,20.02796.375h-2.07041C9.62167.375,2.59613,7.63469,1.58567,17.29272l-1.18332,7.85799c-.26484,2.53133,1.42754,4.7626,3.61236,4.7626h2.56206"/></g></g></svg>