<?xml version="1.0" encoding="UTF-8"?><svg preserveAspectRatio="none" id="Layer_2" xmlns="http://www.w3.org/2000/svg" viewBox="0 0 152.07301 94.27968"><defs><style>.cls-1{fill:none;stroke:#000;stroke-linecap:round;stroke-linejoin:round;stroke-width:.75px;}</style></defs><g id="Illustrations"><g id="Sofa_Object.7"><path id="Object.7.10" class="cls-1" d="m12.66331,44.2456v-28.05599c0-1.93679,1.57399-3.51252,3.50858-3.51252h119.72943c1.93459,0,3.50853,1.57573,3.50853,3.51252v71.12491h2.63962c5.32873,0,9.64855-4.32473,9.64855-9.65952v-42.46367h-.01772c.01079-.18705.01772-.37517.01772-.56489V10.03448c0-5.33479-4.31982-9.65948-9.64855-9.65948H10.0235C4.69477.375.375,4.69968.375,10.03448v24.59196c0,5.33479,4.31977,9.65952,9.6485,9.65952h2.6398v-.04036Z"/><path id="Object.7.9" class="cls-1" d="m14.41762,44.2456v-28.05599c0-.96837.78695-1.75626,1.75427-1.75626h38.59411c.96727,0,1.75427.78789,1.75427,1.75626v32.05198c0,.96842-.78699,1.75626-1.75427,1.75626H16.17188c-.96732,0-1.75427-.78784-1.75427-1.75626v-3.99599Z"/><path id="Object.7.8" class="cls-1" d="m60.02879,14.43336h38.59216c.96931,0,1.75626.78695,1.75626,1.75626v32.05393c0,.96823-.78608,1.75431-1.75431,1.75431h-38.59212c-.96931,0-1.75626-.78695-1.75626-1.75626V16.18762c0-.96821.78606-1.75427,1.75427-1.75427Z"/><path id="Object.7.7" class="cls-1" d="m103.88574,14.43336h32.01358c.96931,0,1.75626.78695,1.75626,1.75626v32.05397c0,.96821-.78606,1.75427-1.75427,1.75427h-32.01358c-.96931,0-1.75626-.78695-1.75626-1.75626V16.18762c0-.96821.78606-1.75427,1.75427-1.75427Z"/><path id="Object.7.6" class="cls-1" d="m137.65558,87.31452v-33.8041c0-.96842-.78699-1.75626-1.75427-1.75626h-32.01557c-.96727,0-1.75427.78784-1.75427,1.75626v38.638c0,.96837.78699,1.75626,1.75427,1.75626h32.01557c.96727,0,1.75427-.78789,1.75427-1.75626v-4.8339Z"/><line id="Object.7.5" class="cls-1" x1="102.13148" y1="48.2416" x2="100.37721" y2="48.2416"/><line id="Object.7.4" class="cls-1" x1="139.40984" y1="87.31452" x2="137.65558" y2="87.31452"/><line id="Object.7.3" class="cls-1" x1="103.88574" y1="51.75416" x2="103.88574" y2="49.99786"/><line id="Object.7.2" class="cls-1" x1="58.27452" y1="48.2416" x2="56.52026" y2="48.2416"/><line id="Object.7.1" class="cls-1" x1="12.66331" y1="44.28596" x2="14.41762" y2="44.28596"/></g></g></svg>