<?xml version="1.0" standalone="no"?>
<!DOCTYPE svg PUBLIC "-//W3C//DTD SVG 20010904//EN"
 "http://www.w3.org/TR/2001/REC-SVG-20010904/DTD/svg10.dtd">
<svg version="1.0" xmlns="http://www.w3.org/2000/svg"
 width="200.000000pt" height="200.000000pt" viewBox="0 0 200.000000 200.000000"
 preserveAspectRatio="none">
<metadata>
Created by potrace 1.10, written by Peter Selinger 2001-2011
</metadata>
<g transform="translate(0.000000,200.000000) scale(0.100000,-0.100000)"
fill="#000000" stroke="none">
<path d="M1640 1890 c0 -5 18 -10 40 -10 l40 0 0 -750 0 -750 35 0 35 0 0
-130 0 -130 -25 0 c-14 0 -25 -4 -25 -10 0 -5 25 -10 55 -10 l55 0 0 140 0
140 -30 0 -30 0 0 750 0 750 -35 0 c-19 0 -35 5 -35 10 0 6 -18 10 -40 10 -22
0 -40 -4 -40 -10z"/>
<path d="M1485 1879 c-4 -6 -5 -13 -2 -15 8 -8 77 7 77 17 0 13 -67 11 -75 -2z"/>
<path d="M1351 1858 c-22 -6 -30 -13 -24 -19 13 -13 75 2 81 19 4 14 -10 14
-57 0z"/>
<path d="M1213 1817 c-28 -10 -47 -33 -25 -31 28 2 62 18 62 30 0 8 -1 14 -2
13 -2 0 -18 -6 -35 -12z"/>
<path d="M1063 1753 c-32 -16 -44 -33 -23 -33 21 0 71 31 65 40 -4 6 -7 10 -8
9 -1 0 -17 -8 -34 -16z"/>
<path d="M923 1678 c-28 -17 -44 -38 -28 -38 12 0 75 35 75 41 0 17 -16 15
-47 -3z"/>
<path d="M794 1588 c-16 -12 -31 -23 -33 -25 -3 -2 0 -7 5 -12 5 -6 22 2 42
19 40 33 27 49 -14 18z"/>
<path d="M666 1481 c-15 -16 -24 -31 -19 -34 10 -6 63 38 63 53 0 17 -15 11
-44 -19z"/>
<path d="M563 1370 c-23 -28 -30 -50 -15 -49 14 1 55 60 46 69 -5 4 -19 -5
-31 -20z"/>
<path d="M474 1258 c-4 -7 -14 -23 -21 -35 -9 -13 -10 -23 -4 -27 8 -5 51 51
51 68 0 11 -19 6 -26 -6z"/>
<path d="M381 1104 c-25 -41 -25 -44 -8 -44 16 0 50 67 38 75 -5 3 -18 -11
-30 -31z"/>
<path d="M314 964 c-9 -22 -12 -40 -6 -46 5 -5 15 8 25 32 20 51 2 65 -19 14z"/>
<path d="M260 814 c-8 -25 -9 -39 -2 -46 7 -7 14 2 21 28 13 48 13 54 2 54 -5
0 -15 -16 -21 -36z"/>
<path d="M226 678 c-9 -33 -7 -68 3 -68 12 0 22 73 12 83 -5 5 -11 -2 -15 -15z"/>
<path d="M200 495 c0 -25 5 -45 10 -45 6 0 10 10 10 23 0 12 3 32 6 45 5 16 2
22 -10 22 -12 0 -16 -10 -16 -45z"/>
<path d="M150 240 l0 -140 55 0 c30 0 55 5 55 10 0 6 -11 10 -25 10 l-25 0 0
120 0 120 25 0 c14 0 25 5 25 10 0 6 -25 10 -55 10 l-55 0 0 -140z"/>
<path d="M330 370 c0 -5 18 -10 40 -10 22 0 40 5 40 10 0 6 -18 10 -40 10 -22
0 -40 -4 -40 -10z"/>
<path d="M480 370 c0 -5 18 -10 40 -10 22 0 40 5 40 10 0 6 -18 10 -40 10 -22
0 -40 -4 -40 -10z"/>
<path d="M630 370 c0 -5 18 -10 40 -10 22 0 40 5 40 10 0 6 -18 10 -40 10 -22
0 -40 -4 -40 -10z"/>
<path d="M780 370 c0 -5 18 -10 40 -10 22 0 40 5 40 10 0 6 -18 10 -40 10 -22
0 -40 -4 -40 -10z"/>
<path d="M930 370 c0 -5 18 -10 40 -10 22 0 40 5 40 10 0 6 -18 10 -40 10 -22
0 -40 -4 -40 -10z"/>
<path d="M1080 370 c0 -5 18 -10 40 -10 22 0 40 5 40 10 0 6 -18 10 -40 10
-22 0 -40 -4 -40 -10z"/>
<path d="M1230 370 c0 -5 18 -10 40 -10 22 0 40 5 40 10 0 6 -18 10 -40 10
-22 0 -40 -4 -40 -10z"/>
<path d="M1380 370 c0 -5 18 -10 40 -10 22 0 40 5 40 10 0 6 -18 10 -40 10
-22 0 -40 -4 -40 -10z"/>
<path d="M1530 370 c0 -5 18 -10 40 -10 22 0 40 5 40 10 0 6 -18 10 -40 10
-22 0 -40 -4 -40 -10z"/>
<path d="M330 110 c0 -5 18 -10 40 -10 22 0 40 5 40 10 0 6 -18 10 -40 10 -22
0 -40 -4 -40 -10z"/>
<path d="M490 110 c0 -5 18 -10 40 -10 22 0 40 5 40 10 0 6 -18 10 -40 10 -22
0 -40 -4 -40 -10z"/>
<path d="M640 110 c0 -5 20 -10 45 -10 25 0 45 5 45 10 0 6 -20 10 -45 10 -25
0 -45 -4 -45 -10z"/>
<path d="M800 110 c0 -5 18 -10 40 -10 22 0 40 5 40 10 0 6 -18 10 -40 10 -22
0 -40 -4 -40 -10z"/>
<path d="M960 110 c0 -5 18 -10 40 -10 22 0 40 5 40 10 0 6 -18 10 -40 10 -22
0 -40 -4 -40 -10z"/>
<path d="M1120 110 c0 -5 18 -10 40 -10 22 0 40 5 40 10 0 6 -18 10 -40 10
-22 0 -40 -4 -40 -10z"/>
<path d="M1270 110 c0 -5 20 -10 45 -10 25 0 45 5 45 10 0 6 -20 10 -45 10
-25 0 -45 -4 -45 -10z"/>
<path d="M1430 110 c0 -5 18 -10 40 -10 22 0 40 5 40 10 0 6 -18 10 -40 10
-22 0 -40 -4 -40 -10z"/>
<path d="M1590 110 c0 -5 18 -10 40 -10 22 0 40 5 40 10 0 6 -18 10 -40 10
-22 0 -40 -4 -40 -10z"/>
</g>
</svg>
