<?xml version="1.0" encoding="UTF-8"?><svg preserveAspectRatio="none" id="Layer_2" xmlns="http://www.w3.org/2000/svg" viewBox="0 0 69.6211 56.91333"><defs><style>.cls-1{fill:none;stroke:#000;stroke-linecap:round;stroke-linejoin:round;stroke-width:.75px;}</style></defs><g id="Illustrations"><g id="Armchair_Object.16"><path id="Object.16.16" class="cls-1" d="m20.86738,31.03026c0-.69954-.56712-1.26666-1.26666-1.26666s-1.26661.56712-1.26661,1.26666.56707,1.26666,1.26661,1.26666,1.26666-.56712,1.26666-1.26666Z"/><path id="Object.16.15" class="cls-1" d="m31.013,31.03026c0-.69954-.56712-1.26666-1.26666-1.26666s-1.26661.56712-1.26661,1.26666.56707,1.26666,1.26661,1.26666,1.26666-.56712,1.26666-1.26666Z"/><path id="Object.16.14" class="cls-1" d="m41.15862,31.03026c0-.69954-.56707-1.26666-1.26666-1.26666-.69954,0-1.26661.56712-1.26661,1.26666s.56707,1.26666,1.26661,1.26666c.69959,0,1.26666-.56712,1.26666-1.26666Z"/><path id="Object.16.13" class="cls-1" d="m51.30425,31.03026c0-.69954-.56707-1.26666-1.26666-1.26666-.69954,0-1.26661.56712-1.26661,1.26666s.56707,1.26666,1.26661,1.26666c.69959,0,1.26666-.56712,1.26666-1.26666Z"/><path id="Object.16.12" class="cls-1" d="m20.86738,40.11632c0-.69954-.56712-1.26666-1.26666-1.26666s-1.26661.56712-1.26661,1.26666.56707,1.26666,1.26661,1.26666,1.26666-.56712,1.26666-1.26666Z"/><path id="Object.16.11" class="cls-1" d="m31.013,40.11632c0-.69954-.56712-1.26666-1.26666-1.26666s-1.26661.56712-1.26661,1.26666.56707,1.26666,1.26661,1.26666,1.26666-.56712,1.26666-1.26666Z"/><path id="Object.16.10" class="cls-1" d="m41.15862,40.11632c0-.69954-.56707-1.26666-1.26666-1.26666-.69954,0-1.26661.56712-1.26661,1.26666s.56707,1.26666,1.26661,1.26666c.69959,0,1.26666-.56712,1.26666-1.26666Z"/><path id="Object.16.9" class="cls-1" d="m51.30425,40.11632c0-.69954-.56707-1.26666-1.26666-1.26666-.69954,0-1.26661.56712-1.26661,1.26666s.56707,1.26666,1.26661,1.26666c.69959,0,1.26666-.56712,1.26666-1.26666Z"/><path id="Object.16.8" class="cls-1" d="m18.33411,49.20239c0,.69954.56707,1.26661,1.26661,1.26661s1.26666-.56707,1.26666-1.26661-.56712-1.26666-1.26666-1.26666-1.26661.56712-1.26661,1.26666Z"/><path id="Object.16.7" class="cls-1" d="m28.47973,49.20239c0,.69954.56707,1.26661,1.26661,1.26661s1.26666-.56707,1.26666-1.26661-.56712-1.26666-1.26666-1.26666-1.26661.56712-1.26661,1.26666Z"/><path id="Object.16.6" class="cls-1" d="m38.62535,49.20239c0,.69954.56707,1.26661,1.26661,1.26661.69959,0,1.26666-.56707,1.26666-1.26661s-.56707-1.26666-1.26666-1.26666c-.69954,0-1.26661.56712-1.26661,1.26666Z"/><path id="Object.16.5" class="cls-1" d="m48.77098,49.20239c0,.69954.56707,1.26661,1.26661,1.26661.69959,0,1.26666-.56707,1.26666-1.26661s-.56707-1.26666-1.26666-1.26666c-.69954,0-1.26661.56712-1.26661,1.26666Z"/><rect id="Object.16.4" class="cls-1" x=".375" y=".375" width="68.8711" height="56.16333"/><path id="Object.16.3" class="cls-1" d="m55.99745,23.21997c0,1.22034-.98928,2.20957-2.20957,2.20957H15.85048c-1.2203,0-2.20957-.98923-2.20957-2.20957"/><path id="Object.16.2" class="cls-1" d="m58.18981,56.53828V16.39137c0-2.43675-1.98244-4.41919-4.41915-4.41919H15.85048c-2.43675,0-4.41919,1.98244-4.41919,4.41919v40.14692"/><path id="Object.16.1" class="cls-1" d="m13.64091,56.53828V16.39137c0-1.22034.98928-2.20962,2.20957-2.20962h37.93739c.15255,0,.30144.01545.44529.04488,1.0069.20608,1.76428,1.09694,1.76428,2.16474v40.14692"/></g></g></svg>