<?xml version="1.0" encoding="UTF-8"?><svg preserveAspectRatio="none" id="Layer_2" xmlns="http://www.w3.org/2000/svg" viewBox="0 0 99.53929 151.76578"><defs><style>.cls-1{fill:none;stroke:#000;stroke-linecap:round;stroke-linejoin:round;stroke-width:.75px;}</style></defs><g id="Illustrations"><g id="Carpet_Object.53"><polygon id="Object.53.73" class="cls-1" points="39.13436 11.34497 17.64359 18.08539 39.13436 24.82647 39.23558 24.86976 39.4107 24.94463 39.53884 25.02811 39.66662 25.11657 39.77713 25.22361 39.8851 25.33499 39.97404 25.46378 40.05639 25.59033 40.13698 25.77882 40.17471 25.86714 40.17662 25.87639 40.22786 26.12465 40.23979 26.18543 40.2403 26.34241 40.23979 26.49947 40.22776 26.56075 40.17662 26.80851 40.17471 26.81776 40.0702 27.07036 40.04053 27.11893 39.91687 27.30894 39.85569 27.3802 39.72448 27.51557 39.64371 27.58415 39.48608 27.69322 39.40564 27.74243 39.14108 27.85569 39.13436 27.85843 17.64359 34.59886 39.13436 41.33993 39.23558 41.38322 39.4107 41.4581 39.53884 41.54158 39.66662 41.63004 39.77713 41.73708 39.8851 41.84845 39.97404 41.97725 40.05639 42.1038 40.13698 42.29229 40.17471 42.38061 40.17662 42.38986 40.22786 42.63812 40.23979 42.6989 40.2403 42.85595 40.23979 43.01293 40.22776 43.07422 40.17662 43.32198 40.17471 43.33123 40.0702 43.58383 40.04053 43.63239 39.91687 43.8224 39.85569 43.89366 39.72448 44.02911 39.64371 44.09762 39.48608 44.20668 39.40564 44.2559 39.14108 44.36916 39.13436 44.3719 17.64359 51.11233 39.13436 57.8534 39.23558 57.89669 39.4107 57.97157 39.53884 58.05504 39.66662 58.14351 39.77713 58.25055 39.8851 58.36192 39.97404 58.49071 40.05639 58.61726 40.13698 58.80575 40.17471 58.89407 40.17662 58.90333 40.22786 59.15159 40.23979 59.21237 40.2403 59.36942 40.23979 59.5264 40.22776 59.58769 40.17662 59.83544 40.17471 59.84477 40.0702 60.09729 40.04053 60.14586 39.91687 60.33587 39.85569 60.40713 39.72448 60.54257 39.64371 60.61109 39.48608 60.72015 39.40564 60.76937 39.14108 60.88262 39.13436 60.88537 17.64359 67.62579 39.13436 74.36687 39.23558 74.41016 39.4107 74.48511 39.53884 74.56851 39.66662 74.65697 39.77713 74.76401 39.8851 74.87539 39.97404 75.00418 40.05639 75.13073 40.13698 75.31922 40.17471 75.40754 40.17662 75.41686 40.22786 75.66505 40.23979 75.72584 40.24029 75.88289 40.23979 76.03987 40.22776 76.10115 40.17662 76.34891 40.17471 76.35824 40.0702 76.61076 40.04053 76.65933 39.91687 76.84941 39.85569 76.9206 39.72448 77.05604 39.64371 77.12456 39.48608 77.23362 39.40564 77.28283 39.14108 77.39609 39.13436 77.39891 17.64359 84.13926 39.13436 90.88033 39.23558 90.92362 39.4107 90.99858 39.53884 91.08205 39.66662 91.17044 39.77713 91.27748 39.8851 91.38885 39.97404 91.51765 40.05639 91.6442 40.13698 91.83276 40.17471 91.92101 40.17662 91.93033 40.22786 92.17852 40.23979 92.23938 40.24029 92.39636 40.23979 92.55333 40.22776 92.61462 40.17662 92.86238 40.17471 92.87171 40.0702 93.12423 40.04053 93.17279 39.91687 93.36287 39.85569 93.43406 39.72447 93.5695 39.64371 93.63809 39.48608 93.74716 39.40564 93.7963 39.14108 93.90955 39.13436 93.91237 17.64359 100.6528 39.13436 107.3938 39.23558 107.43709 39.4107 107.51204 39.53884 107.59552 39.66662 107.68391 39.77713 107.79094 39.8851 107.90232 39.97404 108.03112 40.05639 108.15774 40.13698 108.34623 40.17471 108.43448 40.17662 108.44379 40.22786 108.69199 40.23979 108.75283 40.2403 108.90981 40.23979 109.0668 40.22776 109.12808 40.17662 109.37584 40.17471 109.38518 40.0702 109.6377 40.04053 109.68627 39.91687 109.87635 39.85569 109.94753 39.72447 110.08297 39.64371 110.15156 39.48608 110.26061 39.40564 110.30977 39.14108 110.42302 39.13436 110.42584 17.64359 117.16627 39.13436 123.90727 39.23558 123.95056 39.4107 124.02551 39.53884 124.10898 39.66662 124.19737 39.77713 124.30441 39.8851 124.41586 39.97404 124.54458 40.05639 124.6712 40.13698 124.85969 40.17471 124.94794 40.17662 124.95727 40.22786 125.20545 40.23979 125.26632 40.24029 125.4233 40.23979 125.58028 40.22775 125.64157 40.17662 125.88931 40.17471 125.89863 40.0702 126.15116 40.04053 126.19974 39.91687 126.38981 39.85569 126.461 39.72448 126.59643 39.64371 126.66503 39.48608 126.77409 39.40564 126.82322 39.14108 126.93648 39.13436 126.9393 17.64359 133.67974 37.85233 140.01861 61.68697 140.0186 81.89571 133.67974 60.40494 126.9393 60.39822 126.93647 60.13366 126.82323 60.05322 126.77409 59.89559 126.66502 59.81482 126.59644 59.68361 126.461 59.62243 126.38982 59.49877 126.19972 59.4691 126.15116 59.36459 125.89864 59.36267 125.88931 59.31154 125.64157 59.2995 125.58027 59.299 125.4233 59.29951 125.2663 59.31143 125.20546 59.36267 124.95726 59.36459 124.94794 59.40232 124.85969 59.4829 124.6712 59.56526 124.54458 59.65419 124.41586 59.76217 124.30441 59.87268 124.19737 60.00046 124.10899 60.1286 124.02551 60.30372 123.95056 60.40494 123.90727 81.89571 117.16627 60.40494 110.42584 60.39822 110.42303 60.13366 110.30976 60.05322 110.26062 59.89559 110.15156 59.81482 110.08297 59.68361 109.94754 59.62243 109.87635 59.49877 109.68626 59.4691 109.6377 59.36459 109.38516 59.36268 109.37585 59.31154 109.12808 59.29951 109.06679 59.299 108.90981 59.29951 108.75284 59.31143 108.69198 59.36268 108.4438 59.36459 108.43448 59.40232 108.34623 59.4829 108.15774 59.56526 108.03112 59.65419 107.90232 59.76217 107.79094 59.87268 107.68391 60.00046 107.59552 60.1286 107.51204 60.30372 107.43709 60.40494 107.3938 81.8957 100.6528 60.40494 93.91237 60.39822 93.90955 60.13366 93.79631 60.05322 93.74715 59.89559 93.63809 59.81482 93.56951 59.68361 93.43406 59.62243 93.36287 59.49877 93.17279 59.4691 93.12423 59.36459 92.8717 59.36267 92.86238 59.31154 92.61462 59.29951 92.55333 59.299 92.39636 59.29951 92.23937 59.31143 92.17852 59.36268 91.93033 59.36459 91.92101 59.40232 91.83276 59.4829 91.6442 59.56526 91.51765 59.65419 91.38886 59.76217 91.27748 59.87268 91.17044 60.00046 91.08205 60.1286 90.99858 60.30372 90.92362 60.40494 90.88033 81.8957 84.13926 60.40494 77.39891 60.39822 77.39609 60.13366 77.28283 60.05322 77.23362 59.89559 77.12456 59.81482 77.05604 59.68361 76.9206 59.62243 76.84941 59.49877 76.65933 59.4691 76.61076 59.36459 76.35824 59.36267 76.34891 59.31154 76.10115 59.29951 76.03987 59.299 75.88289 59.29951 75.72584 59.31143 75.66505 59.36268 75.41686 59.36459 75.40754 59.40232 75.31922 59.4829 75.13073 59.56526 75.00418 59.65419 74.87539 59.76217 74.76401 59.87268 74.65697 60.00046 74.56851 60.1286 74.48511 60.30372 74.41016 60.40494 74.36687 81.8957 67.62579 60.40494 60.88537 60.39822 60.88262 60.13366 60.76937 60.05322 60.72015 59.89559 60.61109 59.81482 60.54257 59.68361 60.40713 59.62243 60.33587 59.49877 60.14586 59.4691 60.09729 59.36459 59.84477 59.36268 59.83544 59.31154 59.58769 59.29951 59.5264 59.299 59.36942 59.29951 59.21237 59.31143 59.15159 59.36268 58.90332 59.36459 58.89407 59.40232 58.80575 59.4829 58.61726 59.56526 58.49071 59.65419 58.36192 59.76217 58.25055 59.87268 58.14351 60.00046 58.05504 60.1286 57.97157 60.30372 57.89669 60.40494 57.8534 81.8957 51.11233 60.40494 44.3719 60.39822 44.36916 60.13366 44.2559 60.05322 44.20668 59.89559 44.09762 59.81482 44.02911 59.68361 43.89366 59.62243 43.8224 59.49877 43.63239 59.4691 43.58383 59.36459 43.33123 59.36268 43.32198 59.31154 43.07422 59.29951 43.01293 59.299 42.85595 59.29951 42.6989 59.31143 42.63812 59.36268 42.38986 59.36459 42.38061 59.40232 42.29229 59.4829 42.1038 59.56526 41.97725 59.65419 41.84845 59.76217 41.73708 59.87268 41.63004 60.00046 41.54158 60.1286 41.4581 60.30372 41.38322 60.40494 41.33993 81.8957 34.59886 60.40494 27.85843 60.39822 27.85569 60.13366 27.74243 60.05322 27.69322 59.89559 27.58415 59.81482 27.51557 59.68361 27.3802 59.62243 27.30894 59.49877 27.11893 59.4691 27.07036 59.36459 26.81776 59.36268 26.80851 59.31154 26.56075 59.29951 26.49947 59.299 26.34241 59.29951 26.18543 59.31143 26.12465 59.36268 25.87639 59.36459 25.86714 59.40232 25.77882 59.4829 25.59033 59.56526 25.46378 59.65419 25.33499 59.76217 25.22361 59.87268 25.11657 60.00046 25.02811 60.1286 24.94463 60.30372 24.86976 60.40494 24.82647 81.8957 18.08539 60.40494 11.34497 39.13436 11.34497"/><line id="Object.53.72" class="cls-1" x1=".57275" y1="144.26741" x2=".57275" y2="151.39078"/><line id="Object.53.71" class="cls-1" x1="3.46834" y1="144.26741" x2="3.46834" y2="151.39078"/><line id="Object.53.70" class="cls-1" x1="6.36392" y1="144.26741" x2="6.36392" y2="151.39078"/><line id="Object.53.69" class="cls-1" x1="9.25951" y1="144.26741" x2="9.25951" y2="151.39078"/><line id="Object.53.68" class="cls-1" x1="12.1551" y1="144.26741" x2="12.1551" y2="151.39078"/><line id="Object.53.67" class="cls-1" x1="15.05069" y1="144.26741" x2="15.05069" y2="151.39078"/><line id="Object.53.66" class="cls-1" x1="17.94628" y1="144.26741" x2="17.94628" y2="151.39078"/><line id="Object.53.65" class="cls-1" x1="20.84186" y1="144.26741" x2="20.84186" y2="151.39078"/><line id="Object.53.64" class="cls-1" x1="23.73745" y1="144.26741" x2="23.73745" y2="151.39078"/><line id="Object.53.63" class="cls-1" x1="26.63304" y1="144.26741" x2="26.63304" y2="151.39078"/><line id="Object.53.62" class="cls-1" x1="29.52863" y1="144.26741" x2="29.52863" y2="151.39078"/><line id="Object.53.61" class="cls-1" x1="32.42422" y1="144.26741" x2="32.42422" y2="151.39078"/><line id="Object.53.60" class="cls-1" x1="35.3198" y1="144.26741" x2="35.3198" y2="151.39078"/><line id="Object.53.59" class="cls-1" x1="38.21539" y1="144.26741" x2="38.21539" y2="151.39078"/><line id="Object.53.58" class="cls-1" x1="41.11098" y1="144.26741" x2="41.11098" y2="151.39078"/><line id="Object.53.57" class="cls-1" x1="44.00657" y1="144.26741" x2="44.00657" y2="151.39078"/><line id="Object.53.56" class="cls-1" x1="46.90216" y1="144.26741" x2="46.90216" y2="151.39078"/><line id="Object.53.55" class="cls-1" x1="49.79775" y1="144.26741" x2="49.79775" y2="151.39078"/><line id="Object.53.54" class="cls-1" x1="52.69333" y1="144.26741" x2="52.69333" y2="151.39078"/><line id="Object.53.53" class="cls-1" x1="55.58892" y1="144.26741" x2="55.58892" y2="151.39078"/><line id="Object.53.52" class="cls-1" x1="58.48451" y1="144.26741" x2="58.48451" y2="151.39078"/><line id="Object.53.51" class="cls-1" x1="61.3801" y1="144.26741" x2="61.3801" y2="151.39078"/><line id="Object.53.50" class="cls-1" x1="64.27569" y1="144.26741" x2="64.27569" y2="151.39078"/><line id="Object.53.49" class="cls-1" x1="67.17127" y1="144.26741" x2="67.17127" y2="151.39078"/><line id="Object.53.48" class="cls-1" x1="70.06686" y1="144.26741" x2="70.06686" y2="151.39078"/><line id="Object.53.47" class="cls-1" x1="72.96245" y1="144.26741" x2="72.96245" y2="151.39078"/><line id="Object.53.46" class="cls-1" x1="75.85804" y1="144.26741" x2="75.85804" y2="151.39078"/><line id="Object.53.45" class="cls-1" x1="78.75363" y1="144.26741" x2="78.75363" y2="151.39078"/><line id="Object.53.44" class="cls-1" x1="81.64921" y1="144.26741" x2="81.64921" y2="151.39078"/><line id="Object.53.43" class="cls-1" x1="84.5448" y1="144.26741" x2="84.5448" y2="151.39078"/><line id="Object.53.42" class="cls-1" x1="87.44039" y1="144.26741" x2="87.44039" y2="151.39078"/><line id="Object.53.41" class="cls-1" x1="90.33598" y1="144.26741" x2="90.33598" y2="151.39078"/><line id="Object.53.40" class="cls-1" x1="93.23157" y1="144.26741" x2="93.23157" y2="151.39078"/><line id="Object.53.39" class="cls-1" x1="96.12715" y1="144.26741" x2="96.12715" y2="151.39078"/><line id="Object.53.38" class="cls-1" x1="99.02274" y1="144.26741" x2="99.02274" y2="151.39078"/><line id="Object.53.37" class="cls-1" x1=".57275" y1="7.49837" x2=".57275" y2=".375"/><line id="Object.53.36" class="cls-1" x1="3.46834" y1="7.49837" x2="3.46834" y2=".375"/><line id="Object.53.35" class="cls-1" x1="6.36392" y1="7.49837" x2="6.36392" y2=".375"/><line id="Object.53.34" class="cls-1" x1="9.25951" y1="7.49837" x2="9.25951" y2=".375"/><line id="Object.53.33" class="cls-1" x1="12.1551" y1="7.49837" x2="12.1551" y2=".375"/><line id="Object.53.32" class="cls-1" x1="15.05069" y1="7.49837" x2="15.05069" y2=".375"/><line id="Object.53.31" class="cls-1" x1="17.94628" y1="7.49837" x2="17.94628" y2=".375"/><line id="Object.53.30" class="cls-1" x1="20.84186" y1="7.49837" x2="20.84186" y2=".375"/><line id="Object.53.29" class="cls-1" x1="23.73745" y1="7.49837" x2="23.73745" y2=".375"/><line id="Object.53.28" class="cls-1" x1="26.63304" y1="7.49837" x2="26.63304" y2=".375"/><line id="Object.53.27" class="cls-1" x1="29.52863" y1="7.49837" x2="29.52863" y2=".375"/><line id="Object.53.26" class="cls-1" x1="32.42422" y1="7.49837" x2="32.42422" y2=".375"/><line id="Object.53.25" class="cls-1" x1="35.3198" y1="7.49837" x2="35.3198" y2=".375"/><line id="Object.53.24" class="cls-1" x1="38.21539" y1="7.49837" x2="38.21539" y2=".375"/><line id="Object.53.23" class="cls-1" x1="41.11098" y1="7.49837" x2="41.11098" y2=".375"/><line id="Object.53.22" class="cls-1" x1="44.00657" y1="7.49837" x2="44.00657" y2=".375"/><line id="Object.53.21" class="cls-1" x1="46.90216" y1="7.49837" x2="46.90216" y2=".375"/><line id="Object.53.20" class="cls-1" x1="49.79775" y1="7.49837" x2="49.79775" y2=".375"/><line id="Object.53.19" class="cls-1" x1="52.69333" y1="7.49837" x2="52.69333" y2=".375"/><line id="Object.53.18" class="cls-1" x1="55.58892" y1="7.49837" x2="55.58892" y2=".375"/><line id="Object.53.17" class="cls-1" x1="58.48451" y1="7.49837" x2="58.48451" y2=".375"/><line id="Object.53.16" class="cls-1" x1="61.3801" y1="7.49837" x2="61.3801" y2=".375"/><line id="Object.53.15" class="cls-1" x1="64.27569" y1="7.49837" x2="64.27569" y2=".375"/><line id="Object.53.14" class="cls-1" x1="67.17127" y1="7.49837" x2="67.17127" y2=".375"/><line id="Object.53.13" class="cls-1" x1="70.06686" y1="7.49837" x2="70.06686" y2=".375"/><line id="Object.53.12" class="cls-1" x1="72.96245" y1="7.49837" x2="72.96245" y2=".375"/><line id="Object.53.11" class="cls-1" x1="75.85804" y1="7.49837" x2="75.85804" y2=".375"/><line id="Object.53.10" class="cls-1" x1="78.75363" y1="7.49837" x2="78.75363" y2=".375"/><line id="Object.53.9" class="cls-1" x1="81.64921" y1="7.49837" x2="81.64921" y2=".375"/><line id="Object.53.8" class="cls-1" x1="84.5448" y1="7.49837" x2="84.5448" y2=".375"/><line id="Object.53.7" class="cls-1" x1="87.44039" y1="7.49837" x2="87.44039" y2=".375"/><line id="Object.53.6" class="cls-1" x1="90.33598" y1="7.49837" x2="90.33598" y2=".375"/><line id="Object.53.5" class="cls-1" x1="93.23157" y1="7.49837" x2="93.23157" y2=".375"/><line id="Object.53.4" class="cls-1" x1="96.12715" y1="7.49837" x2="96.12715" y2=".375"/><line id="Object.53.3" class="cls-1" x1="99.02274" y1="7.49837" x2="99.02274" y2=".375"/><polyline id="Object.53.2" class="cls-1" points=".375 140.01861 27.23523 140.01861 11.85961 135.19573 11.853 135.19291 11.5879 135.07941 11.50875 135.03111 11.34968 134.92111 11.26985 134.85333 11.1377 134.71695 11.07721 134.6464 10.95326 134.45587 10.92373 134.40759 10.81922 134.15506 10.81731 134.14581 10.76617 133.89798 10.75418 133.83669 10.75367 133.67974 10.75417 133.52269 10.76606 133.4619 10.81731 133.21373 10.81922 133.2044 10.85641 133.11753 10.93779 132.92728 11.01761 132.80456 11.10955 132.67165 11.21391 132.56397 11.32796 132.45338 11.45354 132.36644 11.58356 132.28195 11.76204 132.20542 11.8596 132.16373 33.35034 125.42329 11.85961 118.68221 11.85299 118.67947 11.58789 118.56592 11.50875 118.51765 11.34968 118.40763 11.26985 118.33987 11.1377 118.20349 11.07721 118.13294 10.95326 117.94241 10.92373 117.89412 10.81922 117.64163 10.81731 117.63229 10.76617 117.38454 10.75418 117.32323 10.75367 117.16627 10.75418 117.00922 10.76606 116.94843 10.81731 116.70025 10.81922 116.69092 10.85641 116.60405 10.93779 116.41382 11.01798 116.29067 11.10941 116.15834 11.21565 116.04863 11.32742 115.9402 11.45827 115.84972 11.58254 115.76877 11.77407 115.68682 11.85961 115.65024 11.87909 115.64403 11.88342 115.64281 33.35034 108.90982 11.85961 102.16876 11.85299 102.16601 11.58789 102.05238 11.50875 102.00419 11.34968 101.89417 11.26985 101.82639 11.1377 101.69001 11.07721 101.61947 10.95325 101.42895 10.92373 101.38066 10.81922 101.12815 10.81731 101.11883 10.76617 100.87107 10.75418 100.80977 10.75367 100.6528 10.75418 100.49575 10.76607 100.43497 10.81731 100.18671 10.81922 100.17745 10.85652 100.09022 10.93772 99.90036 11.01874 99.7759 11.10911 99.64515 11.21774 99.53298 11.32688 99.42718 11.46308 99.33301 11.58153 99.25574 11.78625 99.16807 11.85961 99.13677 11.8762 99.1315 11.88574 99.12854 33.35034 92.39635 11.85961 85.65529 11.853 85.65254 11.58789 85.53892 11.50875 85.49071 11.34968 85.38071 11.26985 85.31291 11.1377 85.17653 11.07721 85.10593 10.95326 84.91548 10.92373 84.86721 10.81922 84.61461 10.81731 84.60535 10.76617 84.3576 10.75418 84.29631 10.75367 84.13926 10.75418 83.98228 10.76607 83.92149 10.81731 83.67324 10.81922 83.66399 10.85641 83.57704 10.93779 83.38688 11.01762 83.26417 11.10955 83.13118 11.21391 83.02357 11.32796 82.91291 11.45354 82.82604 11.58356 82.74148 11.76204 82.66502 11.85961 82.62331 33.35034 75.88289 11.85961 69.14181 11.85299 69.13907 11.58789 69.02545 11.50875 68.97724 11.34968 68.86724 11.26985 68.79945 11.1377 68.66307 11.07721 68.59246 10.95326 68.40194 10.92373 68.35373 10.81922 68.10114 10.81731 68.09189 10.76617 67.84413 10.75418 67.78285 10.75367 67.62579 10.75418 67.46881 10.76607 67.40803 10.81731 67.15977 10.81922 67.15045 10.85641 67.06357 10.93779 66.87342 11.01762 66.7507 11.10955 66.61771 11.21391 66.5101 11.32796 66.39945 11.45354 66.31257 11.58356 66.22801 11.76204 66.15155 11.85961 66.10984 33.35034 59.36942 11.85961 52.62834 11.853 52.62553 11.58789 52.51199 11.50875 52.46378 11.34968 52.35378 11.26985 52.28598 11.1377 52.1496 11.07721 52.07899 10.95326 51.88848 10.92373 51.84027 10.81922 51.58767 10.81731 51.57835 10.76617 51.33059 10.75418 51.26938 10.75367 51.11232 10.75418 50.95535 10.76607 50.89456 10.81731 50.6463 10.81922 50.63698 10.85605 50.55105 10.93797 50.35959 11.01588 50.23983 11.10995 50.10381 11.21167 49.9988 11.32839 49.88569 11.45184 49.80033 11.58359 49.7144 11.76413 49.63714 11.85961 49.59638 11.88118 49.58951 11.8818 49.58937 33.35034 42.85595 11.85961 36.11488 11.853 36.11206 11.58789 35.99852 11.50875 35.95031 11.34968 35.84031 11.26985 35.77252 11.1377 35.63614 11.07721 35.56552 10.95326 35.37501 10.92373 35.3268 10.81922 35.07421 10.81731 35.06488 10.76617 34.81713 10.75418 34.75584 10.75367 34.59886 10.75418 34.44188 10.76607 34.38102 10.81731 34.13284 10.81922 34.12351 10.85652 34.03635 10.93772 33.84649 11.01874 33.72203 11.10911 33.59129 11.21774 33.47912 11.32688 33.37331 11.46308 33.27913 11.58153 33.20187 11.78625 33.1142 11.85961 33.08284 11.87619 33.07756 11.88574 33.07467 33.35034 26.34241 11.85961 19.60141 11.853 19.59859 11.58789 19.48505 11.50875 19.43677 11.34968 19.32684 11.26985 19.25905 11.1377 19.12267 11.07721 19.05206 10.95326 18.86154 10.92373 18.81334 10.81922 18.56074 10.81731 18.55141 10.76617 18.30366 10.75418 18.24237 10.75367 18.08539 10.75418 17.92841 10.76607 17.86756 10.81731 17.61937 10.81922 17.61005 10.85641 17.52317 10.93779 17.33295 11.01762 17.2103 11.10955 17.07731 11.21391 16.96962 11.32796 16.85905 11.45354 16.77217 11.58356 16.68761 11.76204 16.61115 11.85961 16.56937 28.51676 11.34497 .375 11.34498 .37501 7.83758 99.16429 7.83758 99.16429 11.34497 71.02254 11.34497 87.67969 16.56937 87.77726 16.61115 87.95574 16.68761 88.08576 16.77217 88.21134 16.85905 88.32539 16.96962 88.42975 17.07731 88.52168 17.2103 88.60151 17.33295 88.68289 17.52317 88.72007 17.61005 88.72199 17.61937 88.77323 17.86756 88.78512 17.92841 88.78563 18.08539 88.78512 18.24237 88.77312 18.30366 88.72199 18.55141 88.72007 18.56074 88.61557 18.81334 88.58604 18.86154 88.46209 19.05206 88.4016 19.12267 88.26945 19.25905 88.18962 19.32684 88.03054 19.43677 87.9514 19.48505 87.6863 19.59859 87.67969 19.60141 66.18896 26.34241 87.65356 33.07467 87.6631 33.07756 87.67969 33.08284 87.75305 33.1142 87.95776 33.20187 88.07622 33.27913 88.21242 33.37331 88.32156 33.47912 88.43018 33.59129 88.52056 33.72203 88.60158 33.84649 88.68278 34.03635 88.72007 34.12351 88.72199 34.13284 88.77323 34.38102 88.78512 34.44188 88.78563 34.59886 88.78512 34.75584 88.77312 34.81713 88.72199 35.06488 88.72007 35.07421 88.61557 35.3268 88.58604 35.37501 88.46209 35.56552 88.4016 35.63614 88.26945 35.77252 88.18962 35.84031 88.03054 35.95031 87.9514 35.99852 87.6863 36.11206 87.67969 36.11488 66.18896 42.85595 87.6575 49.58937 87.65812 49.58951 87.67969 49.59638 87.77516 49.63714 87.9557 49.7144 88.08746 49.80033 88.2109 49.88569 88.32763 49.9988 88.42935 50.10381 88.52342 50.23983 88.60133 50.35959 88.68325 50.55104 88.72007 50.63698 88.72199 50.6463 88.77323 50.89456 88.78512 50.95535 88.78563 51.11232 88.78512 51.26938 88.77312 51.33059 88.72199 51.57835 88.72007 51.58767 88.61557 51.84027 88.58604 51.88848 88.46209 52.07899 88.4016 52.1496 88.26945 52.28599 88.18962 52.35378 88.03054 52.46378 87.9514 52.51199 87.6863 52.62553 87.67969 52.62834 66.18896 59.36942 87.67969 66.10984 87.77726 66.15155 87.95574 66.22801 88.08576 66.31257 88.21134 66.39945 88.32539 66.5101 88.42975 66.61771 88.52168 66.7507 88.60151 66.87342 88.68289 67.06357 88.72007 67.15045 88.72199 67.15977 88.77323 67.40803 88.78512 67.46881 88.78563 67.62579 88.78512 67.78285 88.77312 67.84413 88.72199 68.09189 88.72007 68.10114 88.61557 68.35373 88.58604 68.40194 88.46209 68.59246 88.4016 68.66307 88.26945 68.79945 88.18962 68.86724 88.03054 68.97724 87.9514 69.02545 87.6863 69.13907 87.67969 69.14181 66.18896 75.88289 87.67969 82.62331 87.77726 82.66502 87.95574 82.74148 88.08576 82.82604 88.21134 82.91291 88.32539 83.02357 88.42975 83.13118 88.52168 83.26417 88.60151 83.38688 88.68289 83.57704 88.72007 83.66399 88.72199 83.67324 88.77323 83.9215 88.78512 83.98228 88.78563 84.13926 88.78512 84.29631 88.77313 84.3576 88.72199 84.60535 88.72007 84.61461 88.61557 84.86721 88.58604 84.91548 88.46209 85.10593 88.4016 85.17653 88.26945 85.31291 88.18962 85.38071 88.03054 85.49071 87.9514 85.53892 87.6863 85.65254 87.67969 85.65529 66.18896 92.39635 87.65356 99.12854 87.6631 99.1315 87.67969 99.13677 87.75305 99.16807 87.95776 99.25574 88.07622 99.33301 88.21242 99.42718 88.32156 99.53298 88.43018 99.64515 88.52056 99.77589 88.60158 99.90036 88.68278 100.09021 88.72007 100.17745 88.72199 100.18671 88.77323 100.43497 88.78512 100.49575 88.78563 100.6528 88.78512 100.80977 88.77312 100.87107 88.72199 101.11883 88.72008 101.12815 88.61557 101.38066 88.58604 101.42895 88.46209 101.61947 88.4016 101.69001 88.26945 101.8264 88.18962 101.89417 88.03054 102.00419 87.9514 102.05238 87.6863 102.16601 87.67969 102.16876 66.18896 108.90982 87.65587 115.64281 87.66021 115.64403 87.67969 115.65024 87.76523 115.68682 87.95675 115.76878 88.08103 115.84971 88.21188 115.9402 88.32365 116.04863 88.42989 116.15835 88.52132 116.29067 88.60151 116.41382 88.68289 116.60404 88.72008 116.69092 88.72199 116.70025 88.77324 116.94844 88.78512 117.00922 88.78563 117.16627 88.78512 117.32323 88.77312 117.38454 88.72199 117.63229 88.72008 117.64163 88.61557 117.89412 88.58604 117.94241 88.46209 118.13294 88.4016 118.20349 88.26944 118.33987 88.18962 118.40763 88.03054 118.51765 87.9514 118.56592 87.6863 118.67947 87.67969 118.68221 66.18896 125.42329 87.67969 132.16373 87.77726 132.20542 87.95574 132.28195 88.08576 132.36643 88.21134 132.45338 88.32539 132.56397 88.42975 132.67166 88.52168 132.80456 88.60151 132.92728 88.68289 133.1175 88.72007 133.2044 88.72199 133.21373 88.77323 133.46192 88.78512 133.52268 88.78562 133.67974 88.78512 133.83669 88.77312 133.89802 88.72199 134.14581 88.72007 134.15506 88.61557 134.40759 88.58604 134.45587 88.46209 134.6464 88.4016 134.71695 88.26944 134.85329 88.18961 134.92108 88.03054 135.03111 87.95141 135.07941 87.6863 135.19291 87.67969 135.19573 72.30407 140.0186 99.16429 140.0186"/><polyline id="Object.53.1" class="cls-1" points=".375 11.34498 .375 140.01861 .38801 143.52599 .77218 143.52599 99.01819 143.52599 99.16429 143.52599 99.16429 11.34497"/></g></g></svg>