<?xml version="1.0" encoding="UTF-8"?><svg preserveAspectRatio="none" id="Layer_2" xmlns="http://www.w3.org/2000/svg" viewBox="0 0 92.09087 61.43442"><defs><style>.cls-1{fill:none;stroke:#000;stroke-linecap:round;stroke-linejoin:round;stroke-width:.75px;}</style></defs><g id="Illustrations"><g id="Coffee_table_Object.48"><path id="Object.48.2" class="cls-1" d="m20.24846,46.88434c0,.92217.74757,1.66967,1.6697,1.66967h48.79175c.92214,0,1.66967-.74749,1.66967-1.66967s-.74753-1.66974-1.66967-1.66974h-6.9142c-.01612-.04322-.0258-.08745-.04575-.12994L46.80251,8.99295c-.39192-.83465-1.38633-1.19362-2.22102-.8017-.83469.392-1.19362,1.38637-.80166,2.22102l16.34197,34.80233H21.91816c-.92214,0-1.6697.74757-1.6697,1.66974Z"/><path id="Object.48.1" class="cls-1" d="m22.38196,61.05935h53.15147s12.42985.11,15.76922-8.70217c3.33933-8.81217-14.37783-33.02252-23.74659-42.02028C58.1873,1.33914,44.08778-4.0409,28.41135,5.1423,12.73492,14.32558,2.34577,33.0631.67611,41.31879c-1.66967,8.25561,3.33937,18.33194,21.70585,19.74056Z"/></g></g></svg>