<?xml version="1.0" encoding="UTF-8"?><svg preserveAspectRatio="none" id="Layer_2" xmlns="http://www.w3.org/2000/svg" viewBox="0 0 45.96199 62.36894"><defs><style>.cls-1{fill:none;stroke:#000;stroke-linecap:round;stroke-linejoin:round;stroke-width:.75px;}</style></defs><g id="Illustrations"><g id="Chair_Object.38"><line id="Object.38.23" class="cls-1" x1="24.3421" y1="21.46237" x2="24.3421" y2="23.69067"/><line id="Object.38.22" class="cls-1" x1="22.22819" y1="23.69067" x2="22.22819" y2="21.46237"/><line id="Object.38.21" class="cls-1" x1="24.3421" y1="58.42025" x2="24.3421" y2="53.29412"/><line id="Object.38.20" class="cls-1" x1="22.22819" y1="53.29412" x2="22.22819" y2="58.42025"/><line id="Object.38.19" class="cls-1" x1="36.6309" y1="52.98627" x2="38.00748" y2="55.37069"/><line id="Object.38.18" class="cls-1" x1="39.83821" y1="54.31375" x2="38.27542" y2="51.60693"/><line id="Object.38.17" class="cls-1" x1="9.84417" y1="53.15115" x2="8.56276" y2="55.37059"/><line id="Object.38.16" class="cls-1" x1="8.04054" y1="52.04731" x2="6.73208" y2="54.31375"/><line id="Object.38.15" class="cls-1" x1="7.06405" y1="27.7164" x2="4.83579" y2="27.7164"/><line id="Object.38.14" class="cls-1" x1="7.06405" y1="29.83036" x2="4.83579" y2="29.83036"/><line id="Object.38.13" class="cls-1" x1="38.89794" y1="27.7164" x2="41.1262" y2="27.7164"/><line id="Object.38.12" class="cls-1" x1="41.1262" y1="29.83036" x2="38.89794" y2="29.83036"/><line id="Object.38.11" class="cls-1" x1="38.89794" y1="43.37874" x2="41.1262" y2="43.37874"/><line id="Object.38.10" class="cls-1" x1="38.89794" y1="41.26478" x2="41.1262" y2="41.26478"/><line id="Object.38.9" class="cls-1" x1="4.83579" y1="43.37874" x2="7.06405" y2="43.37874"/><line id="Object.38.8" class="cls-1" x1="4.83579" y1="41.26478" x2="7.06405" y2="41.26478"/><path id="Object.38.7" class="cls-1" d="m22.22819,58.42025h-.3592c-.2817,0-.51009.2284-.51009.51014v2.5535c0,.28165.2284.51005.51009.51005h2.83231c.2817,0,.51009-.2284.51009-.51005v-2.5535c0-.28174-.2284-.51014-.51009-.51014h-2.47311Z"/><path id="Object.38.6" class="cls-1" d="m39.83821,54.31375l.31107-.17962c.24397-.14082.55598-.05726.69685.18671l1.2767,2.21142c.14087.24397.05731.55593-.18671.69685l-2.45278,1.41608c-.24402.14082-.55598.05726-.69685-.18671l-1.27675-2.21142c-.14087-.24397-.05726-.55593.18671-.69685l.31103-.17953,1.83072-1.05693Z"/><path id="Object.38.5" class="cls-1" d="m6.73208,54.31375l-.31107-.17962c-.24402-.14082-.55598-.05726-.69685.18671l-1.27675,2.21142c-.14082.24397-.05726.55593.18676.69685l2.45278,1.41608c.24402.14082.55598.05726.69685-.18671l1.27675-2.21142c.14087-.24397.05726-.55593-.18671-.69685l-.31107-.17962-1.83068-1.05684Z"/><path id="Object.38.4" class="cls-1" d="m41.1262,43.37874v4.43599c0,1.2318.9986,2.23044,2.2304,2.23044s2.2304-.99864,2.2304-2.23044v-24.53432c0-1.2318-.9986-2.23044-2.2304-2.23044s-2.2304.99864-2.2304,2.23044v20.09833Z"/><path id="Object.38.3" class="cls-1" d="m38.89794,43.37874v6.16431c0,.76325-.23092,1.47139-.62252,2.06388-.40056.60583-.97057,1.08846-1.64453,1.37934-.45549.19669-.9564.30786-1.48407.30786H10.81521c-.33807,0-.65945-.05913-.97104-.14297-.70678-.19025-1.32716-.57617-1.80363-1.10384-.6006-.66514-.9765-1.53751-.9765-2.50426v-22.10131c0-2.07162,1.67945-3.75107,3.75117-3.75107h24.33161c2.07167,0,3.75112,1.67945,3.75112,3.75107v15.937Z"/><path id="Object.38.2" class="cls-1" d="m4.83579,43.37874v4.43599c0,1.2318-.9986,2.23044-2.2304,2.23044s-2.2304-.99864-2.2304-2.23044v-24.53432c0-1.2318.9986-2.23044,2.2304-2.23044s2.2304.99864,2.2304,2.23044v20.09833Z"/><path id="Object.38.1" class="cls-1" d="m24.3421,21.46237h11.36229c1.76376,0,3.19356-1.4297,3.19356-3.19346V3.56856c0-1.76376-1.42979-3.19356-3.19356-3.19356H10.2576c-1.76376,0-3.19356,1.42979-3.19356,3.19356v14.70035c0,1.76376,1.42979,3.19346,3.19356,3.19346h14.0845Z"/></g></g></svg>