<?xml version="1.0" encoding="UTF-8"?><svg preserveAspectRatio="none" id="Layer_2" xmlns="http://www.w3.org/2000/svg" viewBox="0 0 131.06541 124.83307"><defs><style>.cls-1{fill:none;stroke:#000;stroke-linecap:round;stroke-linejoin:round;stroke-width:.75px;}</style></defs><g id="Illustrations"><g id="Dining_table_Object.63"><circle id="Object.63.25" class="cls-1" cx="64.75869" cy="53.35919" r="10.25126"/><path id="Object.63.24" class="cls-1" d="m70.31663,53.35915c0-3.06471-2.49317-5.55816-5.55816-5.55816-3.06442,0-5.55759,2.49346-5.55759,5.55816s2.49317,5.55816,5.55759,5.55816c3.065,0,5.55816-2.49346,5.55816-5.55816Z"/><circle id="Object.63.23" class="cls-1" cx="105.46864" cy="53.35919" r="10.25126"/><path id="Object.63.22" class="cls-1" d="m111.02659,53.35915c0-3.06471-2.49317-5.55816-5.55816-5.55816-3.06442,0-5.55759,2.49346-5.55759,5.55816s2.49317,5.55816,5.55759,5.55816c3.065,0,5.55816-2.49346,5.55816-5.55816Z"/><circle id="Object.63.21" class="cls-1" cx="24.04875" cy="53.35919" r="10.25124"/><path id="Object.63.20" class="cls-1" d="m29.60668,53.35915c0-3.06471-2.49317-5.55816-5.55816-5.55816-3.06442,0-5.55759,2.49346-5.55759,5.55816s2.49317,5.55816,5.55759,5.55816c3.065,0,5.55816-2.49346,5.55816-5.55816Z"/><circle id="Object.63.19" class="cls-1" cx="64.75869" cy="88.27667" r="10.25126"/><path id="Object.63.18" class="cls-1" d="m58.9592,88.27677c0,3.19769,2.60187,5.79927,5.79927,5.79927,3.19798,0,5.79985-2.60158,5.79985-5.79927s-2.60187-5.79927-5.79985-5.79927c-3.1974,0-5.79927,2.60158-5.79927,5.79927Z"/><circle id="Object.63.17" class="cls-1" cx="105.46864" cy="88.27667" r="10.25126"/><path id="Object.63.16" class="cls-1" d="m99.66915,88.27677c0,3.19769,2.60187,5.79927,5.79927,5.79927,3.19798,0,5.79985-2.60158,5.79985-5.79927s-2.60187-5.79927-5.79985-5.79927c-3.1974,0-5.79927,2.60158-5.79927,5.79927Z"/><circle id="Object.63.15" class="cls-1" cx="24.04875" cy="88.27667" r="10.25125"/><path id="Object.63.14" class="cls-1" d="m18.24924,88.27677c0,3.19769,2.60187,5.79927,5.79927,5.79927,3.19798,0,5.79985-2.60158,5.79985-5.79927s-2.60187-5.79927-5.79985-5.79927c-3.1974,0-5.79927,2.60158-5.79927,5.79927Z"/><line id="Object.63.13" class="cls-1" x1="2.5352" y1="21.02359" x2="32.60114" y2="10.48339"/><line id="Object.63.12" class="cls-1" x1="80.68868" y1="20.12779" x2="48.82869" y2="20.12779"/><line id="Object.63.11" class="cls-1" x1="100.34636" y1="3.07447" x2="129.50071" y2="15.9227"/><line id="Object.63.10" class="cls-1" x1="8.11873" y1="121.50806" x2="39.97873" y2="121.50806"/><line id="Object.63.9" class="cls-1" x1="48.82869" y1="121.50806" x2="80.68868" y2="121.50806"/><line id="Object.63.8" class="cls-1" x1="89.53864" y1="121.50806" x2="121.39864" y2="121.50806"/><polyline id="Object.63.7" class="cls-1" points="44.68883 37.75399 32.60114 10.48339 31.62515 7.69951 1.55928 18.2397 2.5352 21.02359 6.93459 37.75399"/><polyline id="Object.63.6" class="cls-1" points="47.41479 37.75399 48.82869 20.12779 48.82869 17.17778 80.68868 17.17778 80.68868 20.12779 82.10265 37.75399"/><polyline id="Object.63.5" class="cls-1" points="121.89979 37.75399 129.50071 15.9227 130.69041 13.22323 101.53599 .375 100.34636 3.07447 86.00314 29.6358 104.42435 37.75399"/><polyline id="Object.63.4" class="cls-1" points="6.70483 103.88187 8.11873 121.50806 8.11873 124.45807 39.97873 124.45807 39.97873 121.50806 41.3927 103.88187"/><polyline id="Object.63.3" class="cls-1" points="47.41479 103.88187 48.82869 121.50806 48.82869 124.45807 80.68868 124.45807 80.68868 121.50806 82.10265 103.88187"/><polyline id="Object.63.2" class="cls-1" points="122.81261 103.88187 121.39864 121.50806 121.39864 124.45807 89.53864 124.45807 89.53864 121.50806 88.12475 103.88187"/><polygon id="Object.63.1" class="cls-1" points="47.41479 103.88187 41.3927 103.88187 6.70483 103.88187 .375 103.88187 .375 37.75399 6.93459 37.75399 44.68883 37.75399 47.41479 37.75399 82.10265 37.75399 104.42435 37.75399 121.89979 37.75399 129.14237 37.75399 129.14237 103.88187 122.81261 103.88187 88.12475 103.88187 82.10265 103.88187 47.41479 103.88187"/></g></g></svg>