<?xml version="1.0" encoding="UTF-8"?><svg preserveAspectRatio="none" id="Layer_2" xmlns="http://www.w3.org/2000/svg" viewBox="0 0 55.76827 56.20934"><defs><style>.cls-1{fill:none;stroke:#000;stroke-linecap:round;stroke-linejoin:round;stroke-width:.75px;}</style></defs><g id="Illustrations"><g id="Floor_lamp_Object.49"><path id="Object.49.10" class="cls-1" d="m34.48022,23.48506s17.01864,2.26675,17.15366,2.2602c2.36466-.11484,4.03124-5.35935,3.7226-11.71388-.30868-6.35446-2.47569-11.41276-4.84035-11.29792-.16751.0082-16.97544,3.90899-16.97544,3.90899"/><path id="Object.49.9" class="cls-1" d="m30.96691,17.01945c-.0753-.57793-.13088-1.17751-.16089-1.79552-.2023-4.16478.75799-7.67005,2.20565-8.4244.17042-.08886.34609-.14822.529-.15707,1.73641-.0844,3.32736,3.62096,3.55347,8.27604.22611,4.655-.99824,8.49715-2.73465,8.58148-.18287.00885-.36351-.03317-.54173-.10505-1.11128-.44812-2.10311-2.39546-2.63283-5.04988"/><path id="Object.49.8" class="cls-1" d="m27.16923,21.58961c.6116.87704,1.0612,1.88848,1.29591,3.00058.5281,2.50209-.14387,4.97807-1.62531,6.83064"/><path id="Object.49.7" class="cls-1" d="m26.42715,20.68747c-1.39409-1.49101-3.31344-2.4359-5.39331-2.5893"/><path id="Object.49.6" class="cls-1" d="m12.73168,23.42974c-.52447,1.40841-.67657,2.97425-.34325,4.55355.56627,2.68306,2.38593,4.77408,4.71415,5.80783"/><path id="Object.49.5" class="cls-1" d="m12.94912,23.33448c-2.04861-.54641-11.09372-3.11715-11.2251-3.19989C-.13064,18.96606-.39392,12.97051,2.99744,7.58784,6.3888,2.20504,12.15066-.52659,14.00532.64193c.10591.06677.19902.15081.28515.24392l8.03827,8.4924"/><path id="Object.49.4" class="cls-1" d="m19.60744,20.11371c.44341-.53835.87239-1.12254,1.27199-1.7568.05422-.08606.1021-.17254.15441-.25874,2.16417-3.56815,2.68626-7.25459,1.2949-8.71991-.11581-.12196-.2404-.23356-.38286-.32328-1.89539-1.1942-5.44591,1.03425-7.9303,4.97742-2.48436,3.94317-2.96184,8.10781-1.06645,9.30209.14247.08973.29695.15398.45694.20579,1.38542.44856,3.38168-.49791,5.24577-2.36898"/><path id="Object.49.3" class="cls-1" d="m20.66468,32.02827c.08375-1.27616.19118-3.03116.33019-5.44994l6.17436-4.98872,4.0157-3.24458,2.86301-2.31322c.25068-.20262.28983-.57044.08721-.82142-.20233-.2504-.57016-.29011-.8217-.08692l-2.34653,1.89596-4.53977,3.66802-5.64054,4.55736-1.17917-5.13111-.85527-3.72155c-.07253-.31487-.38768-.51403-.70025-.43863-.31429.07195-.51058.38567-.43834.69996l1.03825,4.51779,1.18694,5.16493c-.10573,1.84142-.25529,4.32107-.37944,6.18451-.08987,1.34912-.16654,2.37747-.2032,2.5965-.07828.27688.05843.5762.32983.69363.07569.03281.15456.04835.23226.04835.22564,0,.44064-.13182.53619-.35171.03702-.08519.09674-.22572.31026-3.47922Z"/><path id="Object.49.2" class="cls-1" d="m13.00499,40.04374l3.50181,14.03411.04896-.02367c.02058.11584.05188.22744.10307.33077.89625,1.81048,7.11788,2.2458,12.81947-.57685,5.70159-2.82265,8.72409-7.83432,7.82784-9.64473-.0635-.12829-.15506-.23989-.26205-.34228-1.52709-1.97713-9.25474-11.78072-9.25474-11.78072"/><path id="Object.49.1" class="cls-1" d="m20.66468,32.02827c2.4831-.91438,4.77664-1.12945,6.17515-.60743.39423.14722.71341.35509.94953.61952.10379.11613.19636.23996.26518.37905.91593,1.85013-1.72748,5.02621-5.90425,7.09392-4.17677,2.06771-8.30518,2.24414-9.2211.39394-.06882-.13901-.11117-.28767-.14067-.44064-.30519-1.58354,1.44967-3.85452,4.31405-5.67551.54119-.34408,1.117-.67384,1.73087-.9777.20899-.10347.41754-.19873.62588-.2927"/></g></g></svg>