<?xml version="1.0" encoding="UTF-8"?><svg preserveAspectRatio="none" id="Layer_2" xmlns="http://www.w3.org/2000/svg" viewBox="0 0 82.4232 73.03552"><defs><style>.cls-1{fill:none;stroke:#000;stroke-linecap:round;stroke-linejoin:round;stroke-width:.75px;}</style></defs><g id="Illustrations"><g id="Plant_Object.41"><path id="Object.41.13" class="cls-1" d="m46.86182,49.156c-2.54011-.61174-5.43105-1.8629-7.52777-4.4007-4.63864-5.61449-5.54978-8.43082-4.30728-11.74413.62566-1.66849,1.92304-2.66382,3.05744-3.24182.30761-.15681.6002-.28087.86711-.3811.70342-.2643,1.21107-.35303,1.21107-.35303,0,0-.44282.0475-1.14117.06157-.31635.00635-.68405.0056-1.08955-.00953-2.42509-.09002-6.14177-.6985-7.54354-3.44818-.22947-.45016-.40262-.93966-.54184-1.4489-1.0161-3.71574.26143-8.76494,2.3679-11.82007.31408-.45553.64453-.8715.99023-1.2268.42062-.43231.9035-.83723,1.42049-1.21561,1.16205-.85055,2.50096-1.56191,3.73041-2.12107,2.10144-.95577,3.87788-1.46766,3.87788-1.46766,0,0-1.73949,14.33011,0,13.5018s.24849-12.3421,1.49099-14.08154c1.2425-1.73952,9.69143-3.23048,9.69143-3.23048,0,0-3.47897,3.97588-4.47298,10.35408-.99397,6.37805-1.57382,8.28323.24853,6.79228,1.82232-1.49095,3.14765-10.35408,6.29529-13.00482,3.14765-2.65059,4.39011-2.31926,8.03478-.91106,3.64463,1.40805,4.30732,2.07077,4.30732,2.07077,0,0-8.11765,3.46187-10.76827,7.98482-2.65066,4.52294-3.31331,7.1736-1.07684,5.76548,2.23647-1.4082,6.29529-8.94603,9.02879-10.93397,2.73349-1.98802,5.38412-2.81632,5.38412-2.81632l5.38416,2.485s-12.92195,9.8571-11.18243,10.93397c1.73949,1.07673,12.09357-4.55585,12.09357-4.55585l4.72147,7.95199s-4.63864,4.47294-5.79827,8.03474c-1.15967,3.5618-2.81632,5.30125-4.22449,5.38416-1.40816.08276-12.17643-9.44302-12.92191-7.53783-.74552,1.90518,3.5618,6.13099,7.53776,6.87579,3.97599.7448,5.38416,1.08626,5.38416,1.08626,0,0-.71896,1.22945-2.00016,2.50807"/><path id="Object.41.12" class="cls-1" d="m46.91969,38.44019c.66355.68088,1.30827,1.4489,1.9314,2.28318"/><path id="Object.41.11" class="cls-1" d="m49.13244,59.05788c-.42327-.02988-.86136-.13336-1.24965-.26014"/><path id="Object.41.10" class="cls-1" d="m46.76552,60.99582c-.01573,1.44557-.134,3.16119-.55633,4.37543-.13552.38957-.37357.74714-.66654,1.07922"/><path id="Object.41.9" class="cls-1" d="m59.30759,43.02524c.60803.42558,1.15252.79654,1.58154,1.08467"/><path id="Object.41.8" class="cls-1" d="m53.20208,38.11696c-.23703-.25008-.44623-.49033-.61476-.71499-1.98798-2.64998-1.32533-3.81097,1.0768-2.48568.70766.39048,1.6537,1.39352,2.73417,2.58674"/><path id="Object.41.7" class="cls-1" d="m60.76987,41.96031c.46291.3811.9271.71605,1.38808.99011"/><path id="Object.41.6" class="cls-1" d="m48.29914,41.55047c-.52512-1.10562-1.00732-2.17841-1.37945-3.11028-.55194-1.38225-.86246-2.45482-.71049-2.86118.40897-1.09359,1.65352,1.84013,2.84265,4.92393"/><path id="Object.41.5" class="cls-1" d="m32.21419,12.37011c.04928-2.92563.20711-6.2493-.52838-7.19078-1.38055-1.76706-6.62662-4.03118-6.5714-3.14765.05522.8836,3.47897,14.65712,2.0432,15.22529-1.43573.56817-1.43573-.81235-1.43573-1.86154,0-1.04927-.22092-11.98316-1.32533-12.86669-1.10445-.8836-6.84754-2.15375-6.84754-2.15375,0,0,5.13566,15.40699,3.20287,14.6339-1.93276-.77316-2.42974-9.3878-4.5282-11.43096-2.09842-2.04324-8.17283-1.82235-8.44893-1.04919-.2761.77309,6.68184,6.12956,5.41173,7.73103-1.27007,1.6014-5.35651-5.13566-6.40574-5.52221-1.04919-.38654-6.40574,2.59544-6.40574,2.59544l.66268,3.69985s9.22206,2.54022,7.1236,3.14765c-2.09842.60743-6.40574-2.04324-6.40574-2.04324,0,0-.11044,3.0925.38654,4.39019.49702,1.29768,9.0564,1.96033,11.37574,2.23643,2.3193.2761-1.15967,1.49103-4.58342,1.15971-3.42375-.3314-6.35051-.49706-6.35051-.49706,0,0,1.43577,4.97,2.76107,5.13566,1.32533.16566,11.5414-3.53419,12.14882-2.4297.60746,1.10441-1.71187,2.59537-6.24007,3.09235-4.5282.49698-5.19085,1.21493-5.19085,1.21493,0,0,1.71187,3.47897,3.92073,3.53419,2.2089.05522,9.22206-5.15586,10.54739-3.84804,1.32533,1.3079-10.21603,5.72554-10.21603,5.72554,0,0,.75788,1.05751,2.05477,2.24649"/><path id="Object.41.4" class="cls-1" d="m38.35532,7.80663c-1.75828-2.0157-3.57708-2.62729-3.57708-2.62729,0,0-.01051,2.21502-.15333,4.74836"/><path id="Object.41.3" class="cls-1" d="m29.84629,24.19019c-2.64261-.16112-5.2152.16793-6.16764.92423-1.87754,1.49103-2.65066,3.0925-2.65066,3.0925,0,0,3.25813-1.71191,6.24011.33132,2.98195,2.04316,3.42375,4.6386,2.09842,4.74904s-7.95195-2.15368-14.68905-.05522c-.85074.26498-1.61671.55743-2.30773.8659-4.781,2.13431-5.92032,5.04285-5.92032,5.04285,0,0,18.16802-1.65669,19.05154.44176.88357,2.09846-1.49099.22088-8.72504,1.10449-7.23408.88353-9.3325,1.49095-10.32651,4.19684-.99401,2.70588-.82831,5.02515-.82831,5.02515,0,0,16.51132-6.73706,18.27842-4.52816,1.7671,2.2089-.88353.77316-6.51618,2.09846-5.63261,1.32529-9.44294,2.87147-9.93993,5.41177-.49702,2.54015.93875,6.90272.93875,6.90272,0,0,9.44294-9.55346,11.98316-8.33853s-2.3193,1.32537-6.07441,4.85948c-3.75507,3.53427-4.0864,5.57743-3.92073,5.68787s1.87754,2.42978,2.20886,1.82235,5.35654-7.84155,6.46096-6.12963c1.10445,1.71191-5.74305,6.62662-5.74305,6.62662,0,0,2.0432,4.41772,2.26408,4.96993.22088.55228,4.47298,2.8164,5.46695,1.27015.99401-1.54625,1.71191-12.03831,3.53423-10.10559s.49698,6.46096,0,8.39368c-.49702,1.9328-1.21489,3.36861-1.21489,3.36861,0,0,5.0804.99397,5.96397,0,.88353-.99397,3.31331-5.13566,2.70588-9.60868-.60746-4.47294-2.09846-9.0011-.4418-8.725,1.65665.2761,2.15368,8.17279,1.15967,12.36971-.99401,4.19684-2.0432,6.01919-2.0432,6.01919,0,0,2.76107-.11044,5.63261-1.38059,2.87154-1.27007,2.92676-1.49095,2.92676-1.82235,0-.33132.66268-9.22198-.49698-13.08757-1.15967-3.86551-2.98199-5.57743-2.15364-6.5714.82831-.99397,3.54331,1.77114,4.28425,5.22054.07205.33541.12512.74533.16309,1.2091"/><path id="Object.41.2" class="cls-1" d="m41.04607,61.08296c-.18491,4.01514-.63519,8.15373-.63519,8.15373,0,0,2.33817-.63118,4.07906-1.85624"/><path id="Object.41.1" class="cls-1" d="m69.39022,40.9963c.38382.11498.76552.28518,1.17181.51907,1.82235,1.04919,3.47901,3.97596,3.47901,3.97596,0,0-5.79831-.2761-9.38772,1.21493-3.58945,1.49095-4.30732,3.03713-2.92676,3.14757,1.38055.11044,4.25206-2.98191,8.22805-3.25801,3.97599-.2761,4.8043.33132,4.8043.33132l3.31331,5.24603s-6.90272-2.04324-9.44294-.77309c-2.54022,1.27015-1.87754,1.71191,2.87154,1.60147s6.79228-.05522,7.34452.49698c.55221.55221-.05522,5.90875.93875,7.73103.99401,1.82228,2.26412,1.54618,2.26412,1.54618,0,0-2.09846.77316-3.20287,1.38059-1.10445.6075-2.15368,2.70588-3.64467,2.485s-6.68184-8.66985-7.62063-7.39971c-.93875,1.27007-.60743,5.08037,1.9328,6.40574,2.54018,1.32529,5.46695,2.48492,5.46695,2.48492,0,0-4.47298,2.09846-6.68184,1.60147-2.2089-.49706-5.96397-5.41177-6.5714-8.83552-.60746-3.42375-.77313-4.4178-1.87757-2.92676-1.10441,1.49103-.2761,4.85948,2.31934,8.11765,2.59544,3.25801,5.13562,4.69382,4.96996,4.69382s-4.30732,1.54625-7.34452.93883-3.81029-2.31934-4.14162-3.75515c-.33132-1.43573-.99401-7.56537-1.32533-9.6086s-3.25809.8836-2.98199,4.47294c.2761,3.58949,2.92676,7.62066,2.92676,7.62066,0,0-4.19688,1.15971-5.68787-.71787s-.88353-5.13566-.22088-7.28934c.34101-1.10819.70868-2.49007.76961-3.38653.05745-.84563-.15787-1.25956-.93527-.58942-.10855.09357-.21286.20583-.31438.32928-.43594.53042-.80641,1.31758-1.11727,2.19808-.68458,1.93877-1.07741,4.32717-1.21901,5.42463-.00136.01067-.0025.01952-.00386.03003q-.2168,1.68014-.21702,1.68181s-.34494-.26793-.83568-.75183c-1.11421-1.09866-2.99386-3.34296-3.44387-6.29749-.03415-.22421-.06638-.44948-.08298-.68171-.11369-1.59202-.11188-3.14152.08484-4.55955.37648-2.71352,1.48002-4.93596,3.94638-5.98787.67256-.28677,1.29507-.51431,1.86751-.69782,2.62373-.84124,4.15168-.71832,4.15168-.71832-.88357-1.23444-3.86555-2.42781-3.20287-5.5862.09648-.45999.26597-.89208.48851-1.30101.15677-.28805.337-.56582.55194-.8271l.20076-.22043c.95448-1.04586,2.3774-1.85586,4.15024-2.38598.96961-.28987,2.04006-.49812,3.19621-.61393.33397-.03343.67365-.06067,1.02094-.07882,5.19085-.27141,10.05037,2.02637,10.05037,2.02637,0,0-4.13901,1.06523-6.69973,2.50974-.59778.33722-1.10933.69502-1.46229,1.06492-.06392.06702-.12341.13434-.17648.20197-1.60143,2.04324-1.71187,4.47302-.55221,3.58949.64786-.49366,1.29647-1.60775,2.31022-2.70679.36816-.3991.78663-.7948,1.26882-1.15948.56669-.42868,1.22143-.81401,1.99834-1.10373,2.53167-.94404,3.89623-1.25116,5.23393-.8504Z"/></g></g></svg>