<?xml version="1.0" standalone="no"?>
<!DOCTYPE svg PUBLIC "-//W3C//DTD SVG 20010904//EN"
 "http://www.w3.org/TR/2001/REC-SVG-20010904/DTD/svg10.dtd">
<svg version="1.0" xmlns="http://www.w3.org/2000/svg"
 width="200.000000pt" height="200.000000pt" viewBox="0 0 200.000000 200.000000"
 preserveAspectRatio="none">
<metadata>
Created by potrace 1.10, written by Peter Selinger 2001-2011
</metadata>
<g transform="translate(0.000000,200.000000) scale(0.100000,-0.100000)"
fill="#000000" stroke="none">
<path d="M280 1890 c0 -5 -16 -10 -35 -10 l-35 0 0 -750 0 -750 -30 0 -30 0 0
-140 0 -140 55 0 c30 0 55 5 55 10 0 6 -11 10 -25 10 l-25 0 0 130 0 130 35 0
35 0 0 750 0 750 40 0 c22 0 40 5 40 10 0 6 -18 10 -40 10 -22 0 -40 -4 -40
-10z"/>
<path d="M440 1881 c0 -10 69 -25 77 -17 3 2 2 9 -2 15 -8 13 -75 15 -75 2z"/>
<path d="M592 1858 c6 -17 68 -32 81 -19 6 6 -4 13 -29 20 -50 14 -57 14 -52
-1z"/>
<path d="M750 1817 c0 -17 61 -40 74 -27 6 6 4 11 -5 14 -8 3 -26 10 -41 15
-21 8 -28 7 -28 -2z"/>
<path d="M895 1760 c-3 -5 8 -16 24 -25 33 -17 51 -19 51 -7 0 13 -69 42 -75
32z"/>
<path d="M1034 1689 c-7 -12 -7 -12 33 -33 37 -18 43 -19 43 -7 0 15 -69 51
-76 40z"/>
<path d="M1166 1602 c-2 -4 10 -20 29 -35 21 -17 36 -23 40 -16 7 10 -11 28
-47 49 -9 6 -19 6 -22 2z"/>
<path d="M1290 1500 c0 -15 53 -59 63 -53 5 3 -4 18 -19 34 -29 30 -44 36 -44
19z"/>
<path d="M1405 1390 c-6 -10 33 -68 48 -69 14 -2 7 22 -17 50 -14 16 -28 25
-31 19z"/>
<path d="M1500 1265 c0 -18 43 -75 51 -69 6 3 1 19 -10 37 -19 30 -41 47 -41
32z"/>
<path d="M1587 1134 c-9 -10 25 -74 40 -74 17 0 17 3 -8 44 -23 39 -23 39 -32
30z"/>
<path d="M1658 994 c-3 -3 1 -23 10 -45 9 -24 19 -36 24 -31 6 6 3 24 -6 46
-15 37 -18 40 -28 30z"/>
<path d="M1710 843 c0 -5 5 -25 11 -47 7 -26 14 -35 21 -28 12 12 -8 82 -23
82 -5 0 -9 -3 -9 -7z"/>
<path d="M1757 693 c-8 -13 3 -83 14 -83 11 0 11 47 0 74 -4 11 -10 15 -14 9z"/>
<path d="M1774 518 c3 -13 6 -33 6 -45 0 -13 5 -23 10 -23 6 0 10 20 10 45 0
35 -4 45 -16 45 -12 0 -15 -6 -10 -22z"/>
<path d="M390 370 c0 -5 18 -10 40 -10 22 0 40 5 40 10 0 6 -18 10 -40 10 -22
0 -40 -4 -40 -10z"/>
<path d="M540 370 c0 -5 18 -10 40 -10 22 0 40 5 40 10 0 6 -18 10 -40 10 -22
0 -40 -4 -40 -10z"/>
<path d="M690 370 c0 -5 18 -10 40 -10 22 0 40 5 40 10 0 6 -18 10 -40 10 -22
0 -40 -4 -40 -10z"/>
<path d="M840 370 c0 -5 18 -10 40 -10 22 0 40 5 40 10 0 6 -18 10 -40 10 -22
0 -40 -4 -40 -10z"/>
<path d="M990 370 c0 -5 18 -10 40 -10 22 0 40 5 40 10 0 6 -18 10 -40 10 -22
0 -40 -4 -40 -10z"/>
<path d="M1140 370 c0 -5 18 -10 40 -10 22 0 40 5 40 10 0 6 -18 10 -40 10
-22 0 -40 -4 -40 -10z"/>
<path d="M1290 370 c0 -5 18 -10 40 -10 22 0 40 5 40 10 0 6 -18 10 -40 10
-22 0 -40 -4 -40 -10z"/>
<path d="M1440 370 c0 -5 18 -10 40 -10 22 0 40 5 40 10 0 6 -18 10 -40 10
-22 0 -40 -4 -40 -10z"/>
<path d="M1590 370 c0 -5 18 -10 40 -10 22 0 40 5 40 10 0 6 -18 10 -40 10
-22 0 -40 -4 -40 -10z"/>
<path d="M1740 370 c0 -5 11 -10 25 -10 l25 0 0 -120 0 -120 -25 0 c-14 0 -25
-4 -25 -10 0 -5 25 -10 55 -10 l55 0 0 140 0 140 -55 0 c-30 0 -55 -4 -55 -10z"/>
<path d="M330 110 c0 -5 18 -10 40 -10 22 0 40 5 40 10 0 6 -18 10 -40 10 -22
0 -40 -4 -40 -10z"/>
<path d="M490 110 c0 -5 18 -10 40 -10 22 0 40 5 40 10 0 6 -18 10 -40 10 -22
0 -40 -4 -40 -10z"/>
<path d="M640 110 c0 -5 20 -10 45 -10 25 0 45 5 45 10 0 6 -20 10 -45 10 -25
0 -45 -4 -45 -10z"/>
<path d="M800 110 c0 -5 18 -10 40 -10 22 0 40 5 40 10 0 6 -18 10 -40 10 -22
0 -40 -4 -40 -10z"/>
<path d="M960 110 c0 -5 18 -10 40 -10 22 0 40 5 40 10 0 6 -18 10 -40 10 -22
0 -40 -4 -40 -10z"/>
<path d="M1120 110 c0 -5 18 -10 40 -10 22 0 40 5 40 10 0 6 -18 10 -40 10
-22 0 -40 -4 -40 -10z"/>
<path d="M1270 110 c0 -5 20 -10 45 -10 25 0 45 5 45 10 0 6 -20 10 -45 10
-25 0 -45 -4 -45 -10z"/>
<path d="M1430 110 c0 -5 18 -10 40 -10 22 0 40 5 40 10 0 6 -18 10 -40 10
-22 0 -40 -4 -40 -10z"/>
<path d="M1590 110 c0 -5 18 -10 40 -10 22 0 40 5 40 10 0 6 -18 10 -40 10
-22 0 -40 -4 -40 -10z"/>
</g>
</svg>
