<?xml version="1.0" encoding="UTF-8"?>
<!DOCTYPE svg PUBLIC "-//W3C//DTD SVG 1.1//EN" "http://www.w3.org/Graphics/SVG/1.1/DTD/svg11.dtd">
<svg preserveAspectRatio="none" xmlns="http://www.w3.org/2000/svg" version="1.1" width="200px" height="200px" style="shape-rendering:geometricPrecision; text-rendering:geometricPrecision; image-rendering:optimizeQuality; fill-rule:evenodd; clip-rule:evenodd" xmlns:xlink="http://www.w3.org/1999/xlink">
<g><path style="opacity:0.884" fill="#000000" d="M 14.5,9.5 C 18.226,9.17744 21.8927,9.51078 25.5,10.5C 24.3112,11.4287 22.9778,11.762 21.5,11.5C 21.5,19.8333 21.5,28.1667 21.5,36.5C 24.8333,35.8333 28.1667,35.1667 31.5,34.5C 31.5,35.5 31.5,36.5 31.5,37.5C 30.1667,37.5 28.8333,37.5 27.5,37.5C 27.5,87.5 27.5,137.5 27.5,187.5C 30.1411,186.737 32.8078,186.57 35.5,187C 35.9574,187.414 36.2907,187.914 36.5,188.5C 35,188.833 33.5,189.167 32,189.5C 28.1827,188.931 24.3494,188.597 20.5,188.5C 20.5,138.167 20.5,87.8333 20.5,37.5C 18.5,37.5 16.5,37.5 14.5,37.5C 14.5,28.1667 14.5,18.8333 14.5,9.5 Z"/></g>
<g><path style="opacity:0.863" fill="#000000" d="M 32.5,9.5 C 35.5719,9.18259 38.5719,9.51592 41.5,10.5C 40,10.8333 38.5,11.1667 37,11.5C 35.0145,11.4313 33.5145,10.7647 32.5,9.5 Z"/></g>
<g><path style="opacity:0.865" fill="#000000" d="M 47.5,9.5 C 50.5719,9.18259 53.5719,9.51592 56.5,10.5C 55,10.8333 53.5,11.1667 52,11.5C 50.0145,11.4313 48.5145,10.7647 47.5,9.5 Z"/></g>
<g><path style="opacity:0.865" fill="#000000" d="M 63.5,9.5 C 66.5719,9.18259 69.5719,9.51592 72.5,10.5C 71,10.8333 69.5,11.1667 68,11.5C 66.0145,11.4313 64.5145,10.7647 63.5,9.5 Z"/></g>
<g><path style="opacity:0.869" fill="#000000" d="M 79.5,9.5 C 82.5719,9.18259 85.5719,9.51592 88.5,10.5C 87,10.8333 85.5,11.1667 84,11.5C 82.0145,11.4313 80.5145,10.7647 79.5,9.5 Z"/></g>
<g><path style="opacity:0.977" fill="#000000" d="M 95.5,9.5 C 98.2469,9.18665 100.914,9.51998 103.5,10.5C 102.167,10.8333 100.833,11.1667 99.5,11.5C 97.6672,11.4146 96.3339,10.7479 95.5,9.5 Z"/></g>
<g><path style="opacity:0.869" fill="#000000" d="M 110.5,9.5 C 113.572,9.18259 116.572,9.51592 119.5,10.5C 118,10.8333 116.5,11.1667 115,11.5C 113.014,11.4313 111.514,10.7647 110.5,9.5 Z"/></g>
<g><path style="opacity:0.87" fill="#000000" d="M 126.5,9.5 C 129.572,9.18259 132.572,9.51592 135.5,10.5C 134,10.8333 132.5,11.1667 131,11.5C 129.014,11.4313 127.514,10.7647 126.5,9.5 Z"/></g>
<g><path style="opacity:0.87" fill="#000000" d="M 142.5,9.5 C 145.572,9.18259 148.572,9.51592 151.5,10.5C 150,10.8333 148.5,11.1667 147,11.5C 145.014,11.4313 143.514,10.7647 142.5,9.5 Z"/></g>
<g><path style="opacity:0.977" fill="#000000" d="M 158.5,9.5 C 161.247,9.18665 163.914,9.51998 166.5,10.5C 165.167,10.8333 163.833,11.1667 162.5,11.5C 160.667,11.4146 159.334,10.7479 158.5,9.5 Z"/></g>
<g><path style="opacity:0.884" fill="#000000" d="M 173.5,9.5 C 177.167,9.5 180.833,9.5 184.5,9.5C 184.5,18.8333 184.5,28.1667 184.5,37.5C 180.833,37.5 177.167,37.5 173.5,37.5C 173.5,36.5 173.5,35.5 173.5,34.5C 174.833,34.5 176.167,34.5 177.5,34.5C 177.5,26.8333 177.5,19.1667 177.5,11.5C 175.517,11.8432 174.183,11.1765 173.5,9.5 Z"/></g>
<g><path style="opacity:0.625" fill="#000000" d="M 38.5,34.5 C 41.1667,34.5 43.8333,34.5 46.5,34.5C 46.5,35.5 46.5,36.5 46.5,37.5C 43.8333,37.5 41.1667,37.5 38.5,37.5C 38.5,36.5 38.5,35.5 38.5,34.5 Z"/></g>
<g><path style="opacity:0.625" fill="#000000" d="M 53.5,34.5 C 56.1667,34.5 58.8333,34.5 61.5,34.5C 61.5,35.5 61.5,36.5 61.5,37.5C 58.8333,37.5 56.1667,37.5 53.5,37.5C 53.5,36.5 53.5,35.5 53.5,34.5 Z"/></g>
<g><path style="opacity:0.626" fill="#000000" d="M 68.5,34.5 C 71.1667,34.5 73.8333,34.5 76.5,34.5C 76.5,35.5 76.5,36.5 76.5,37.5C 73.8333,37.5 71.1667,37.5 68.5,37.5C 68.5,36.5 68.5,35.5 68.5,34.5 Z"/></g>
<g><path style="opacity:0.624" fill="#000000" d="M 83.5,34.5 C 86.1667,34.5 88.8333,34.5 91.5,34.5C 91.5,35.5 91.5,36.5 91.5,37.5C 88.8333,37.5 86.1667,37.5 83.5,37.5C 83.5,36.5 83.5,35.5 83.5,34.5 Z"/></g>
<g><path style="opacity:0.624" fill="#000000" d="M 98.5,34.5 C 101.167,34.5 103.833,34.5 106.5,34.5C 106.5,35.5 106.5,36.5 106.5,37.5C 103.833,37.5 101.167,37.5 98.5,37.5C 98.5,36.5 98.5,35.5 98.5,34.5 Z"/></g>
<g><path style="opacity:0.625" fill="#000000" d="M 113.5,34.5 C 116.167,34.5 118.833,34.5 121.5,34.5C 121.5,35.5 121.5,36.5 121.5,37.5C 118.833,37.5 116.167,37.5 113.5,37.5C 113.5,36.5 113.5,35.5 113.5,34.5 Z"/></g>
<g><path style="opacity:0.555" fill="#000000" d="M 128.5,34.5 C 131.5,34.5 134.5,34.5 137.5,34.5C 137.5,35.5 137.5,36.5 137.5,37.5C 134.5,37.5 131.5,37.5 128.5,37.5C 128.5,36.5 128.5,35.5 128.5,34.5 Z"/></g>
<g><path style="opacity:0.555" fill="#000000" d="M 143.5,34.5 C 146.5,34.5 149.5,34.5 152.5,34.5C 152.5,35.5 152.5,36.5 152.5,37.5C 149.5,37.5 146.5,37.5 143.5,37.5C 143.5,36.5 143.5,35.5 143.5,34.5 Z"/></g>
<g><path style="opacity:0.556" fill="#000000" d="M 158.5,34.5 C 161.5,34.5 164.5,34.5 167.5,34.5C 167.5,35.5 167.5,36.5 167.5,37.5C 164.5,37.5 161.5,37.5 158.5,37.5C 158.5,36.5 158.5,35.5 158.5,34.5 Z"/></g>
<g><path style="opacity:0.584" fill="#000000" d="M 176.5,44.5 C 177.5,44.5 178.5,44.5 179.5,44.5C 179.5,47.5 179.5,50.5 179.5,53.5C 178.5,53.5 177.5,53.5 176.5,53.5C 176.5,50.5 176.5,47.5 176.5,44.5 Z"/></g>
<g><path style="opacity:0.563" fill="#000000" d="M 175.5,60.5 C 176.5,60.5 177.5,60.5 178.5,60.5C 178.067,63.1656 177.567,65.8323 177,68.5C 175.703,69.7836 174.536,69.6169 173.5,68C 174.355,65.5644 175.021,63.0644 175.5,60.5 Z"/></g>
<g><path style="opacity:0.526" fill="#000000" d="M 172.5,75.5 C 173.756,75.4614 174.756,75.9614 175.5,77C 174.133,79.3015 173.466,81.8015 173.5,84.5C 172.022,84.762 170.689,84.4287 169.5,83.5C 170.508,80.8048 171.508,78.1381 172.5,75.5 Z"/></g>
<g><path style="opacity:0.524" fill="#000000" d="M 167.5,90.5 C 168.756,90.4614 169.756,90.9614 170.5,92C 169.601,94.1917 168.601,96.3584 167.5,98.5C 166.675,99.3857 165.675,99.719 164.5,99.5C 164.905,96.2854 165.905,93.2854 167.5,90.5 Z"/></g>
<g><path style="opacity:0.508" fill="#000000" d="M 160.5,104.5 C 162.252,104.418 163.252,105.251 163.5,107C 162.622,110.372 160.622,112.539 157.5,113.5C 158.213,110.406 159.213,107.406 160.5,104.5 Z"/></g>
<g><path style="opacity:0.526" fill="#000000" d="M 152.5,118.5 C 153.995,118.415 154.995,119.081 155.5,120.5C 154.197,122.968 152.697,125.301 151,127.5C 150.075,126.953 149.242,126.287 148.5,125.5C 150.11,123.275 151.443,120.941 152.5,118.5 Z"/></g>
<g><path style="opacity:0.493" fill="#000000" d="M 143.5,131.5 C 144.995,131.415 145.995,132.081 146.5,133.5C 144.833,135.833 142.833,137.833 140.5,139.5C 139.5,139.167 138.833,138.5 138.5,137.5C 140.19,135.481 141.856,133.481 143.5,131.5 Z"/></g>
<g><path style="opacity:0.544" fill="#000000" d="M 133.5,142.5 C 135.273,143.314 135.773,144.648 135,146.5C 133.05,148.388 130.883,149.554 128.5,150C 128.167,149.667 127.833,149.333 127.5,149C 129.706,146.963 131.706,144.797 133.5,142.5 Z"/></g>
<g><path style="opacity:0.527" fill="#000000" d="M 121.5,153.5 C 123.225,153.843 123.725,154.843 123,156.5C 121.117,159.024 118.617,160.358 115.5,160.5C 116.74,157.588 118.74,155.254 121.5,153.5 Z"/></g>
<g><path style="opacity:0.511" fill="#000000" d="M 108.5,162.5 C 109.922,162.75 110.922,163.583 111.5,165C 108.714,167.06 105.714,168.56 102.5,169.5C 102.351,168.448 102.517,167.448 103,166.5C 105.167,165.512 107,164.179 108.5,162.5 Z"/></g>
<g><path style="opacity:0.51" fill="#000000" d="M 94.5,170.5 C 96.6859,170.511 97.5192,171.511 97,173.5C 94.4125,175.196 91.5792,176.196 88.5,176.5C 88.281,175.325 88.6143,174.325 89.5,173.5C 91.3964,172.725 93.063,171.725 94.5,170.5 Z"/></g>
<g><path style="opacity:0.545" fill="#000000" d="M 78.5,177.5 C 79.8333,177.5 81.1667,177.5 82.5,177.5C 82.5,178.5 82.5,179.5 82.5,180.5C 79.5,181.167 76.5,181.833 73.5,182.5C 73.281,181.325 73.6143,180.325 74.5,179.5C 76.0255,179.006 77.3588,178.339 78.5,177.5 Z"/></g>
<g><path style="opacity:0.544" fill="#000000" d="M 65.5,181.5 C 67.6516,182.077 67.985,183.244 66.5,185C 63.8832,185.822 61.2165,186.322 58.5,186.5C 58.5,185.5 58.5,184.5 58.5,183.5C 61.0673,183.279 63.4006,182.612 65.5,181.5 Z"/></g>
<g><path style="opacity:0.582" fill="#000000" d="M 44.5,185.5 C 46.8333,185.5 49.1667,185.5 51.5,185.5C 51.5,186.5 51.5,187.5 51.5,188.5C 49.0799,188.292 46.7466,188.626 44.5,189.5C 41.8753,188.135 41.8753,186.802 44.5,185.5 Z"/></g>
</svg>
