<?xml version="1.0" encoding="UTF-8"?><svg preserveAspectRatio="none" id="Layer_2" xmlns="http://www.w3.org/2000/svg" viewBox="0 0 56.7805 124.21282"><defs><style>.cls-1{fill:none;stroke:#000;stroke-linecap:round;stroke-linejoin:round;stroke-width:.75px;}</style></defs><g id="Illustrations"><g id="Bed_single_Object.97"><line id="Object.97.10" class="cls-1" x1="54.82688" y1="78.15259" x2="4.5766" y2="78.15259"/><line id="Object.97.9" class="cls-1" x1="54.82688" y1="93.38102" x2="4.5766" y2="93.38102"/><line id="Object.97.8" class="cls-1" x1="54.82688" y1="108.6094" x2="4.5766" y2="108.6094"/><line id="Object.97.7" class="cls-1" x1="14.2349" y1="62.92417" x2="4.5766" y2="62.92417"/><line id="Object.97.6" class="cls-1" x1="18.53296" y1="62.92417" x2="54.82688" y2="62.92417"/><line id="Object.97.5" class="cls-1" x1="54.82688" y1="6.24497" x2="4.5766" y2="6.24497"/><polyline id="Object.97.4" class="cls-1" points="4.5766 46.78152 4.5766 6.24497 4.5766 .375 54.82688 .375 54.82688 6.24497 54.82688 38.39711"/><path id="Object.97.3" class="cls-1" d="m40.53163,39.43544c-2.33153-.20616-4.34856-.42792-4.8345-.48277-1.27748-.1442-15.61354,2.45166-18.02653,2.66798s-4.68409,1.51428-5.32279.93738c-.6387-.57685,3.12268-5.62437,3.12268-5.62437,0,0-1.06453-3.82173-.78067-5.19176.28394-1.37007.35492-3.85664.35492-3.85664,0,0-.92264-6.38268-1.49043-6.95954s-3.05177-4.25434-3.05177-4.25434c0,0,8.37457-.14424,10.5746.43265,2.2002.57685,3.12276,1.0095,3.12276,1.0095,0,0,19.09106-3.17276,21.00732-3.96593,1.9161-.79318,2.64361-1.08163,2.64361-1.08163,0,0-.79842,5.62441-.79842,9.59035s-.56779,7.28285-.56779,7.28285c0,0,.39041,4.47071,1.36621,6.12918.67763,1.15156,1.21736,1.95233,1.37106,2.62585"/><polyline id="Object.97.2" class="cls-1" points="54.82688 48.30453 54.82688 62.92417 54.82688 78.15259 54.82688 93.38102 54.82688 108.6094 54.82688 110.32133 54.82688 123.83782 4.5766 123.83782 4.5766 110.32133 4.5766 108.6094 4.5766 93.38102 4.5766 78.15259 4.5766 62.92417 4.5766 57.52276"/><path id="Object.97.1" class="cls-1" d="m54.82688,48.30453c.96032-.33023,1.57862-.60878,1.57862-.60878l-1.57862-9.29864s-1.58331.01803-5.60501.2971c-1.24566.08646-2.71765.1971-4.45871.34111-1.05468.08721-2.514.2257-4.23153.40012-10.27089,1.04298-30.09712,3.41489-32.15066,4.38357-1.00785.47546-2.43895,1.67512-3.80437,2.96251-1.88186,1.77413-3.63841,3.71601-3.98567,4.16963,0,0-.77043,1.39164.59922,3.74.39237.67272,1.69283,1.7028,3.38644,2.83161,2.91895,1.94558,7.00906,4.18508,9.6583,5.40142,1.17945.54151,2.07347.88047,2.44981.89957.41957.02133,1.05734-.3315,1.84825-.89957,2.4366-1.75006,6.3462-5.57076,9.9653-7.01534,4.79385-1.91349,17.20662-6.52327,20.69422-6.52327,2.07386,0,4.22567-.59663,5.63441-1.08103Z"/></g></g></svg>