<?xml version="1.0" encoding="UTF-8"?><svg preserveAspectRatio="none" id="Layer_2" xmlns="http://www.w3.org/2000/svg" viewBox="0 0 117.14291 124.30819"><defs><style>.cls-1{fill:none;stroke:#000;stroke-linecap:round;stroke-linejoin:round;stroke-width:.75px;}</style></defs><g id="Illustrations"><g id="Bed_double_Object.96"><line id="Object.96.10" class="cls-1" x1="26.06964" y1="62.97249" x2="104.91738" y2="62.97249"/><line id="Object.96.9" class="cls-1" x1="104.91738" y1="78.21267" x2="10.27246" y2="78.21267"/><line id="Object.96.8" class="cls-1" x1="104.91738" y1="93.45286" x2="10.27246" y2="93.45286"/><line id="Object.96.7" class="cls-1" x1="104.91738" y1="108.693" x2="10.27246" y2="108.693"/><line id="Object.96.6" class="cls-1" x1="104.91738" y1="6.2495" x2="10.27246" y2="6.2495"/><path id="Object.96.5" class="cls-1" d="m23.33885,41.83034c.40941-.07846.82839-.143,1.25259-.17782,2.63872-.21649,18.31578-2.81436,19.71285-2.67004,1.3969.14431,14.35771,1.44327,14.74574.5773.38812-.86597-.38804-1.80408-1.4552-3.46384-1.06708-1.65976-1.49393-6.13392-1.49393-6.13392,0,0,.62091-3.31948.62091-7.28848s.87302-9.59776.87302-9.59776c0,0-.79539.28867-2.89091,1.08246-2.09543.79379-22.9724,3.969-22.9724,3.969,0,0-1.00895-.43298-3.41479-1.01028-2.40593-.57734-11.56382-.43298-11.56382-.43298,0,0,2.71634,3.68033,3.33717,4.25763s1.62977,6.96491,1.62977,6.96491c0,0-.07762,2.48849-.38804,3.85962-.31041,1.37109.8537,5.19577.8537,5.19577,0,0-2.94811,3.62401-3.42129,5.08027"/><path id="Object.96.4" class="cls-1" d="m97.23768,35.86116c-.1567-1.75491-.39872-4.29833-.54696-5.03318-.23287-1.1546-.3105-1.44327-.3105-1.44327,0,0,1.78502-6.20606,1.62986-8.94824-.15525-2.74222,2.02234-5.19577.89473-5.55662-1.12752-.36081-10.2855.14435-12.45856.57734-2.17306.43294-4.8894.79379-5.27752.79379-.38795,0-12.0294.14431-13.34884-.21649-1.31927-.36081-8.25641-2.67004-8.66829-1.87625-.41197.79379.67451,6.85553,1.68346,8.94828l1.00895,2.09274s-1.00895,3.60815-1.00895,6.13388.07762,3.31952.07762,3.31952c0,0-1.86265,3.969-1.3969,4.5463.46558.5773,9.23543-1.58758,9.23543-1.58758,0,0,3.2598.11844,7.28251.30242"/><polyline id="Object.96.3" class="cls-1" points="104.91738 36.83063 104.91738 6.2495 104.91738 .375 10.27246 .375 10.27246 6.2495 10.27246 45.94365"/><polyline id="Object.96.2" class="cls-1" points="10.27246 66.83652 10.27246 78.21267 10.27246 93.45286 10.27246 108.693 10.27246 110.40626 10.27246 123.93319 104.91738 123.93319 104.91738 110.40626 104.91738 108.693 104.91738 93.45286 104.91738 78.21267 104.91738 62.97249 104.91738 52.87681"/><path id="Object.96.1" class="cls-1" d="m104.91738,52.87681c4.50914,1.45611,10.01159,3.02799,10.01159,3.02799,0,0,.23279-.64948,1.51342-3.24734,1.28046-2.59791-1.62986-9.92017-1.62986-9.92017,0,0-5.48381-3.94487-9.89515-5.90666-1.2649-.56251-2.44218-.96295-3.37607-1.05945-.75444-.07794-2.28308-.03525-4.30363.08998-5.24786.32524-13.85879,1.21501-21.20396,2.05264-5.53681.63143-10.35107,1.23254-12.44351,1.53774-4.38459.6395-28.13032,1.81016-40.25136,2.37879-1.82418.08557-3.38282.15739-4.57463.21184-1.61242.07365-2.55468.1155-2.55468.1155,0,0-2.22623.72265-5.93707,3.78597-.62082.51247-1.27832,1.08298-1.97908,1.73452-4.88932,4.5463-5.93707,15.04607-5.93707,15.04607,0,0-2.79397,3.35561-1.74621,4.97928.48618.75349,4.53428.20063,9.66237-.867,5.00515-1.04204,11.03481-2.57362,15.79718-3.86403.87276-.23648,1.7068-.46562,2.47988-.68123,9.31314-2.59787,38.30032-7.57715,38.30032-7.57715,0,0,3.84164-.32476,8.38182-.9742,4.54018-.64948,17.22938-4.11335,17.22938-4.11335,0,0,5.47141,0,6.76914,1.08246.49541.41327,2.90228,1.26847,5.68719,2.16778Z"/></g></g></svg>