<?xml version="1.0" encoding="UTF-8"?><svg id="Layer_2" xmlns="http://www.w3.org/2000/svg" viewBox="0 0 20.10428 19.21642"><defs><style>.cls-1{fill:none;stroke:#000;stroke-linecap:round;stroke-linejoin:round;stroke-width:.75px;}</style></defs><g id="Illustrations"><g id="Bedside_table_Object.68"><polyline id="Object.68.8" class="cls-1" points="2.45745 17.91371 2.45745 18.84142 7.56404 18.84142 7.56404 17.91371"/><polygon id="Object.68.7" class="cls-1" points="2.45745 17.91371 7.56404 17.91371 19.72928 17.91371 19.72928 .375 .375 .375 .375 17.91371 2.45745 17.91371"/><circle id="Object.68.6" class="cls-1" cx="10.82099" cy="9.14437" r="5.81028" transform="translate(-2.6757 4.83709) rotate(-22.50002)"/><circle id="Object.68.5" class="cls-1" cx="10.821" cy="9.14437" r=".54752"/><path id="Object.68.4" class="cls-1" d="m7.60241,10.90566c-.28677-.5229-.4504-1.12286-.4504-1.76131,0-1.99803,1.59789-3.61975,3.58517-3.66477v-.00422h.16784v.00425c1.98714.04509,3.58503,1.66677,3.58503,3.66473,0,.63845-.16363,1.23841-.4504,1.76131l.00084.00049-.08392.14521-.00408-.00232c-.64403,1.05651-1.80362,1.76429-3.13154,1.76429-1.32785,0-2.48744-.70778-3.13147-1.76429l-.00401.00232-.08392-.14521.00084-.00049Z"/><line id="Object.68.3" class="cls-1" x1="10.90503" y1="5.47962" x2="10.90503" y2="8.59686"/><line id="Object.68.2" class="cls-1" x1="11.29978" y1="9.40637" x2="14.04051" y2="10.90616"/><line id="Object.68.1" class="cls-1" x1="7.68549" y1="11.05137" x2="10.3435" y2="9.40637"/></g></g></svg>