<?xml version="1.0" encoding="UTF-8"?><svg id="Layer_2" xmlns="http://www.w3.org/2000/svg" viewBox="0 0 131.43217 111.68958"><defs><style>.cls-1{fill:none;stroke:#000;stroke-linecap:round;stroke-linejoin:round;stroke-width:.75px;}</style></defs><g id="Illustrations"><g id="Working_table_Object.43"><line id="Object.43.30" class="cls-1" x1="74.97626" y1="26.86462" x2="75.92457" y2="24.84904"/><line id="Object.43.29" class="cls-1" x1="77.83681" y1="25.74864" x2="76.88845" y2="27.76422"/><line id="Object.43.28" class="cls-1" x1="64.28992" y1="54.54268" x2="62.10834" y2="59.17966"/><line id="Object.43.27" class="cls-1" x1="60.19615" y1="58.27997" x2="62.37774" y2="53.64299"/><line id="Object.43.26" class="cls-1" x1="77.87331" y1="62.05978" x2="77.61165" y2="58.94621"/><line id="Object.43.25" class="cls-1" x1="75.53701" y1="59.49404" x2="75.76752" y2="62.23674"/><line id="Object.43.24" class="cls-1" x1="47.92641" y1="47.97057" x2="50.07461" y2="46.47727"/><line id="Object.43.23" class="cls-1" x1="49.13264" y1="49.7058" x2="51.23633" y2="48.24337"/><line id="Object.43.22" class="cls-1" x1="88.342" y1="37.60047" x2="90.35763" y2="38.54873"/><line id="Object.43.21" class="cls-1" x1="87.44236" y1="39.51257" x2="89.45799" y2="40.46092"/><line id="Object.43.20" class="cls-1" x1="57.53037" y1="23.1043" x2="59.546" y2="24.05265"/><line id="Object.43.19" class="cls-1" x1="56.63073" y1="25.01649" x2="58.64636" y2="25.96484"/><line id="Object.43.18" class="cls-1" x1="52.88043" y1="38.22037" x2="50.8648" y2="37.27201"/><line id="Object.43.17" class="cls-1" x1="51.76444" y1="35.35983" x2="53.78007" y2="36.30818"/><line id="Object.43.16" class="cls-1" x1="83.69205" y1="52.71645" x2="81.67643" y2="51.76809"/><line id="Object.43.15" class="cls-1" x1="82.57607" y1="49.85591" x2="84.5917" y2="50.80426"/><path id="Object.43.14" class="cls-1" d="m89.45799,40.46092l-4.86629,10.34334-.89964,1.91219-1.88785,4.0127c-.52424,1.11431-.04592,2.44249,1.06835,2.96673s2.44254.04596,2.96678-1.06835l10.44128-22.19312c.52424-1.11422.04592-2.44249-1.06835-2.96664-1.11426-.52434-2.44254-.04596-2.96678,1.06825l-1.88785,4.0127-.89964,1.91219Z"/><path id="Object.43.13" class="cls-1" d="m51.76444,35.35983l4.86629-10.34334.89964-1.91219,1.88785-4.01261c.52424-1.11422.04592-2.44258-1.06835-2.96673-1.11426-.52434-2.44254-.04596-2.96673,1.06825l-10.44128,22.19312c-.52424,1.11431-.04596,2.44249,1.06835,2.96683,1.11426.52415,2.44249.04587,2.96673-1.06844l1.88785-4.0127.89964-1.91219Z"/><path id="Object.43.12" class="cls-1" d="m62.37774,53.64299l-10.3239-4.85701c-.30575-.14395-.57137-.33414-.8175-.54261-.55846-.47287-.95525-1.08606-1.16172-1.76609-.26026-.85727-.22898-1.80637.18245-2.68089l2.62336-5.57602.89964-1.91219,4.86629-10.34334.89964-1.91219.11687-.24837c.88165-1.87396,3.11558-2.67846,4.98954-1.79677l10.32385,4.85711,1.91219.8996,9.77365,4.59829c1.87396.88169,2.67841,3.11553,1.79677,4.98949l-.11687.24846-.89964,1.91209-4.86629,10.34334-.89964,1.91219-2.62336,5.57602c-.32482.69048-.83503,1.23281-1.44141,1.6021-.62018.37759-1.34119.57151-2.07464.54783-.49571-.01594-.99614-.12857-1.47348-.35316l-9.7736-4.5982-1.91219-.89969Z"/><path id="Object.43.11" class="cls-1" d="m60.19615,58.27997l-.32491-.1529c-.25485-.1199-.55865-.01044-.67854.24445l-1.08667,2.30973c-.1199.2549-.01054.55865.24431.67854l2.56201,1.2053c.25485.1199.55865.01054.67854-.24427l1.08667-2.30982c.1199-.2548.01054-.55865-.24431-.67854l-.32491-.15281-1.91219-.89969Z"/><path id="Object.43.10" class="cls-1" d="m75.76752,62.23674l2.10578-.17695.35782-.03002c.28067-.02368.52727.18479.55086.46541l.21383,2.54374c.02359.28063-.18483.52723-.46546.55081l-2.82143.23718c-.28067.02349-.52727-.18479-.55086-.46551l-.21383-2.54365c-.02359-.28063.18483-.52732.46546-.55091l.35782-.03011Z"/><path id="Object.43.9" class="cls-1" d="m47.92641,47.97057l-.20492-.2948c-.16073-.23131-.47851-.28846-.70977-.12773l-2.09604,1.45703c-.23126.16073-.28841.47847-.12763.70977l1.61608,2.32493c.16073.23122.47851.28837.70977.12754l2.09599-1.45694c.23126-.16083.28841-.47856.12768-.70977l-.20492-.2948-1.20624-1.73523Z"/><path id="Object.43.8" class="cls-1" d="m77.83681,25.74864l10.27798,4.83548c1.59543.7507,3.49722.06582,4.24783-1.52956l6.25614-13.29758c.75061-1.59548.06578-3.49722-1.52966-4.24783L74.07066.67949c-1.59543-.75061-3.49727-.06573-4.24788,1.52966l-6.25614,13.29749c-.75056,1.59548-.06573,3.49732,1.5297,4.24793l10.82824,5.09447,1.91223.8996Z"/><rect id="Object.43.7" class="cls-1" x="76.02045" y="80.98998" width="21.93581" height="5.88225"/><path id="Object.43.6" class="cls-1" d="m71.67005,85.09527c0,.64294.52122,1.16416,1.1642,1.16416s1.1642-.52122,1.1642-1.16416v-1.89953c0-.64294-.52122-1.16416-1.1642-1.16416s-1.1642.52122-1.1642,1.16416v1.89953Z"/><path id="Object.43.5" class="cls-1" d="m84.39956,100.87311v.39822c0,1.0152.82301,1.83825,1.83821,1.83825h5.28481c1.0152,0,1.83818-.82304,1.83818-1.83825v-.39822"/><path id="Object.43.4" class="cls-1" d="m84.39956,98.11578v-.39822c0-1.0152.82301-1.83818,1.83821-1.83818h5.28481c1.0152,0,1.83818.82297,1.83818,1.83818v.39822"/><polygon id="Object.43.3" class="cls-1" points="84.39956 100.87311 75.02475 100.87311 75.02475 98.11578 84.39956 98.11578 93.36075 98.11578 102.73556 98.11578 102.73556 100.87311 93.36075 100.87311 84.39956 100.87311"/><polygon id="Object.43.2" class="cls-1" points="14.56092 109.60448 14.56092 69.8888 34.1709 69.8888 32.91564 69.8888 131.05717 69.8888 131.05717 111.31458 14.56092 111.31458 14.56092 105.32528 14.56092 109.60448"/><polyline id="Object.43.1" class="cls-1" points="32.91564 69.8888 32.91564 15.01197 .375 15.01197 .375 109.7822 14.04592 109.7822"/></g></g></svg>