<?xml version="1.0" standalone="no"?>
<!DOCTYPE svg PUBLIC "-//W3C//DTD SVG 20010904//EN"
 "http://www.w3.org/TR/2001/REC-SVG-20010904/DTD/svg10.dtd">
<svg version="1.0" xmlns="http://www.w3.org/2000/svg"
 width="200.000000pt" height="200.000000pt" viewBox="0 0 200.000000 200.000000"
 preserveAspectRatio="none">

<g transform="translate(0.000000,200.000000) scale(0.100000,-0.100000)"
fill="#000000" stroke="none">
<path d="M1640 1890 c0 -5 18 -10 40 -10 l40 0 0 -750 c0 -743 0 -750 -20
-750 -11 0 -20 -4 -20 -10 0 -5 9 -10 20 -10 11 0 20 5 20 10 0 6 16 10 35 10
l35 0 0 -130 c0 -123 -1 -130 -20 -130 -11 0 -20 -4 -20 -10 0 -5 23 -10 50
-10 l50 0 0 140 0 140 -30 0 -30 0 0 750 0 750 -35 0 c-19 0 -35 5 -35 10 0 6
-18 10 -40 10 -22 0 -40 -4 -40 -10z"/>
<path d="M1490 1880 c-8 -5 -12 -11 -10 -13 9 -8 80 5 80 14 0 12 -51 11 -70
-1z"/>
<path d="M1363 1858 c-40 -10 -45 -31 -5 -22 28 7 49 21 41 27 -2 2 -19 0 -36
-5z"/>
<path d="M1197 1808 c-15 -5 -25 -13 -22 -18 6 -10 75 10 75 22 0 10 -18 9
-53 -4z"/>
<path d="M1063 1753 c-27 -14 -44 -33 -29 -33 18 0 75 33 71 40 -3 6 -7 10 -8
9 -1 0 -17 -8 -34 -16z"/>
<path d="M917 1672 c-15 -10 -24 -21 -21 -25 8 -8 64 23 64 35 0 12 -13 9 -43
-10z"/>
<path d="M788 1581 c-22 -20 -28 -31 -17 -31 17 0 66 47 57 56 -4 3 -21 -8
-40 -25z"/>
<path d="M670 1482 c-13 -10 -21 -24 -19 -31 3 -7 15 0 34 19 31 33 21 41 -15
12z"/>
<path d="M560 1365 c-13 -14 -20 -28 -17 -32 8 -7 57 35 57 49 0 15 -16 8 -40
-17z"/>
<path d="M468 1245 c-19 -25 -23 -45 -10 -45 8 0 42 52 42 64 0 13 -16 4 -32
-19z"/>
<path d="M385 1110 c-24 -46 -13 -60 13 -17 11 20 17 39 12 42 -5 3 -16 -8
-25 -25z"/>
<path d="M317 973 c-2 -10 -8 -26 -12 -35 -11 -28 11 -21 23 7 7 14 12 30 12
35 0 17 -17 11 -23 -7z"/>
<path d="M267 834 c-3 -11 -8 -29 -12 -41 -10 -35 12 -27 24 9 7 19 8 35 2 41
-5 5 -11 2 -14 -9z"/>
<path d="M226 674 c-9 -25 -7 -64 4 -64 6 0 10 8 10 18 0 9 3 27 6 40 7 25
-11 31 -20 6z"/>
<path d="M206 524 c-9 -24 -7 -64 3 -64 11 0 20 69 10 76 -4 2 -10 -3 -13 -12z"/>
<path d="M150 240 l0 -140 50 0 c28 0 50 5 50 10 0 6 -9 10 -20 10 -19 0 -20
7 -20 120 0 113 1 120 20 120 11 0 20 5 20 10 0 6 -22 10 -50 10 l-50 0 0
-140z"/>
<path d="M330 370 c0 -5 16 -10 35 -10 19 0 35 5 35 10 0 6 -16 10 -35 10 -19
0 -35 -4 -35 -10z"/>
<path d="M480 370 c0 -5 16 -10 35 -10 19 0 35 5 35 10 0 6 -16 10 -35 10 -19
0 -35 -4 -35 -10z"/>
<path d="M630 370 c0 -5 16 -10 35 -10 19 0 35 5 35 10 0 6 -16 10 -35 10 -19
0 -35 -4 -35 -10z"/>
<path d="M780 370 c0 -5 18 -10 40 -10 22 0 40 5 40 10 0 6 -18 10 -40 10 -22
0 -40 -4 -40 -10z"/>
<path d="M930 370 c0 -5 18 -10 40 -10 22 0 40 5 40 10 0 6 -18 10 -40 10 -22
0 -40 -4 -40 -10z"/>
<path d="M1080 370 c0 -5 18 -10 40 -10 22 0 40 5 40 10 0 6 -18 10 -40 10
-22 0 -40 -4 -40 -10z"/>
<path d="M1230 370 c0 -5 18 -10 40 -10 22 0 40 5 40 10 0 6 -18 10 -40 10
-22 0 -40 -4 -40 -10z"/>
<path d="M1380 370 c0 -5 18 -10 40 -10 22 0 40 5 40 10 0 6 -18 10 -40 10
-22 0 -40 -4 -40 -10z"/>
<path d="M1530 370 c0 -5 18 -10 40 -10 22 0 40 5 40 10 0 6 -18 10 -40 10
-22 0 -40 -4 -40 -10z"/>
<path d="M330 110 c0 -5 18 -10 40 -10 22 0 40 5 40 10 0 6 -18 10 -40 10 -22
0 -40 -4 -40 -10z"/>
<path d="M490 110 c0 -5 18 -10 40 -10 22 0 40 5 40 10 0 6 -18 10 -40 10 -22
0 -40 -4 -40 -10z"/>
<path d="M650 110 c0 -5 16 -10 35 -10 19 0 35 5 35 10 0 6 -16 10 -35 10 -19
0 -35 -4 -35 -10z"/>
<path d="M800 110 c0 -5 18 -10 40 -10 22 0 40 5 40 10 0 6 -18 10 -40 10 -22
0 -40 -4 -40 -10z"/>
<path d="M960 110 c0 -5 18 -10 40 -10 22 0 40 5 40 10 0 6 -18 10 -40 10 -22
0 -40 -4 -40 -10z"/>
<path d="M1120 110 c0 -5 18 -10 40 -10 22 0 40 5 40 10 0 6 -18 10 -40 10
-22 0 -40 -4 -40 -10z"/>
<path d="M1280 110 c0 -5 16 -10 35 -10 19 0 35 5 35 10 0 6 -16 10 -35 10
-19 0 -35 -4 -35 -10z"/>
<path d="M1430 110 c0 -5 18 -10 40 -10 22 0 40 5 40 10 0 6 -18 10 -40 10
-22 0 -40 -4 -40 -10z"/>
<path d="M1590 110 c0 -5 18 -10 40 -10 22 0 40 5 40 10 0 6 -18 10 -40 10
-22 0 -40 -4 -40 -10z"/>
</g>
</svg>
